<svg xmlns="http://www.w3.org/2000/svg" viewBox="0 0 80 80"><circle fill="#3B3C45" cx="40" cy="40" r="40"/><path d="M10.337 66.834l7.035-7.035a4.002 4.002 0 0 0 0-5.658l-8.485-8.485a4 4 0 0 0-5.657 0L.824 48.063a39.773 39.773 0 0 0 9.513 18.77zm21.6 12.341l2.406-2.406a4.002 4.002 0 0 0 0-5.658l-8.485-8.485a4 4 0 0 0-5.657 0l-7.034 7.035a39.773 39.773 0 0 0 18.77 9.513zm11.163.695l-.272-.272a4 4 0 0 0-5.657 0l-.27.272c2.064.16 4.136.16 6.2 0zM8.887 34.343l8.485-8.485a4 4 0 0 0 0-5.657l-7.035-7.034A39.767 39.767 0 0 0 .824 31.938l2.406 2.406a4.004 4.004 0 0 0 5.657 0zm16.971-16.97l8.485-8.485a4 4 0 0 0 0-5.657L31.937.826a39.775 39.775 0 0 0-18.772 9.513l7.035 7.035a4.002 4.002 0 0 0 5.658 0zM48.063.825L45.657 3.23a4 4 0 0 0 0 5.657l8.485 8.485a4 4 0 0 0 5.657 0l7.034-7.035A39.768 39.768 0 0 0 48.064.825zM36.9.13l.272.272a4 4 0 0 0 5.657 0L43.1.13a40.102 40.102 0 0 0-6.2 0zM.13 43.1l.272-.272a4 4 0 0 0 0-5.657L.13 36.9a40.102 40.102 0 0 0 0 6.2zm47.933 36.075a39.775 39.775 0 0 0 18.772-9.513L59.8 62.627a4 4 0 0 0-5.657 0l-8.485 8.485a4 4 0 0 0 0 5.657l2.405 2.405zm21.6-12.341a39.775 39.775 0 0 0 9.513-18.772l-2.406-2.406a4 4 0 0 0-5.657 0l-8.485 8.485a4.002 4.002 0 0 0 0 5.658l7.035 7.036zm7.107-32.491l2.406-2.406a39.775 39.775 0 0 0-9.513-18.772L62.628 20.2a4 4 0 0 0 0 5.657l8.485 8.485a3.999 3.999 0 0 0 5.657 0zm3.1 8.757c.16-2.064.16-4.136 0-6.2l-.272.272a4 4 0 0 0 0 5.657l.272.27z" opacity=".5" fill="#5C5A69"/><linearGradient id="a" gradientUnits="userSpaceOnUse" x1="10.833" y1="40" x2="69.061" y2="40"><stop offset="0" stop-color="#21ABC7"/><stop offset=".5" stop-color="#616DB3"/><stop offset="1" stop-color="#53499D"/></linearGradient><path fill="url(#a)" d="M34.343 37.172l-8.485-8.485a4 4 0 0 0-5.657 0l-8.484 8.485a4 4 0 0 0 0 5.657l8.485 8.484a4.002 4.002 0 0 0 5.658 0l8.485-8.485a4.002 4.002 0 0 0 0-5.658z"/><linearGradient id="b" gradientUnits="userSpaceOnUse" x1="10.833" y1="56.971" x2="69.061" y2="56.971"><stop offset="0" stop-color="#21ABC7"/><stop offset=".5" stop-color="#616DB3"/><stop offset="1" stop-color="#53499D"/></linearGradient><path fill="url(#b)" d="M42.828 45.657a4 4 0 0 0-5.657 0l-8.484 8.485a4 4 0 0 0 0 5.657l8.485 8.484a4.002 4.002 0 0 0 5.658 0l8.485-8.485a4.002 4.002 0 0 0 0-5.658l-8.485-8.485z"/><linearGradient id="c" gradientUnits="userSpaceOnUse" x1="10.833" y1="40" x2="69.061" y2="40"><stop offset="0" stop-color="#21ABC7"/><stop offset=".5" stop-color="#616DB3"/><stop offset="1" stop-color="#53499D"/></linearGradient><path fill="url(#c)" d="M68.284 37.172L59.8 28.687a4.002 4.002 0 0 0-5.658 0l-8.485 8.485a4 4 0 0 0 0 5.657l8.485 8.484a4 4 0 0 0 5.657 0l8.484-8.485a4.002 4.002 0 0 0 0-5.658z"/><linearGradient id="d" gradientUnits="userSpaceOnUse" x1="10.833" y1="23.029" x2="69.061" y2="23.029"><stop offset="0" stop-color="#21ABC7"/><stop offset=".5" stop-color="#616DB3"/><stop offset="1" stop-color="#53499D"/></linearGradient><path fill="url(#d)" d="M37.172 34.343a4 4 0 0 0 5.657 0l8.484-8.485a4 4 0 0 0 0-5.657l-8.485-8.484a4.002 4.002 0 0 0-5.658 0L28.687 20.2a4.002 4.002 0 0 0 0 5.658l8.485 8.485z"/></svg>