<svg xmlns="http://www.w3.org/2000/svg" width="600" height="264"><path fill="#49B8CF" d="M188 260c0 2.2-1.8 4-4 4H32c-2.2 0-4-1.8-4-4V107.6c0-2.2 1.8-4 4-4h152c2.2 0 4 1.8 4 4V260z"/><path fill="#71C5D6" d="M180 260c0 2.2-1.8 4-4 4H24c-2.2 0-4-1.8-4-4V107.6c0-2.2 1.8-4 4-4h152c2.2 0 4 1.8 4 4V260z"/><path fill="#9AD2DE" d="M156.4 168.6H60v-2h95.6l16-16h8.4v2h-7.6m-16 24H132v-2h23.6l16-16h8.4v2h-7.6m-16 24H132v-2h23.6l16-16h8.4v2h-7.6m-16 24H132v-2h23.6l16-16h8.4v2h-7.6m-96.4 0H43.6l-8-8H20v-2h16.4l8 8H76m0 10H43.6l-8-8H20v-2h16.4l8 8H76m0 10H35.6l-8-8H20v-2h8.4l8 8H76m-8-22H51.6L35 152v-48.4h2v47.6l15.4 15.4H68M37 264h-2v-48.8l16.6-16.6H68v2H52.4L37 216m119.4-15.4H132v-2h23.6l16-16h8.4v2h-7.6M61 264h-2v-8.8l24-24v-15.6h2V232l-24 24m40 8h-2v-16l-8-8v-24.4h2v23.6l8 8m8 16.8h-2v-16l-8-8v-24.4h2v23.6l8 8m8 16.8h-2v-16l-8-8v-24.4h2v23.6l8 8m8 16.8h-2v-16l-8-8v-24.4h2v23.6l8 8m-8-87.6h-2v-32.4l16.6-16.6H180v2h-47.6L117 128m-8 31.6h-2V128l-8-8v-16.4h2v15.6l8 8m-8 40.4h-2V136l-8-8v-24.4h2v23.6l8 8m-8 32.4h-2V136l-8-8v-24.4h2v23.6l8 8m-8 32.4h-2V136l-8-8v-24.4h2v23.6l8 8"/><path d="M82 143.6h4v80h-4zm8 0h4v80h-4zm8 0h4v80h-4zm8 0h4v80h-4zm8 0h4v80h-4zm-54 22h80v4H60zm0 8h80v4H60zm0 8h80v4H60zm0 8h80v4H60zm0 8h80v4H60z" fill="#C2DFE5"/><path fill="#49B8CF" d="M132 207.6c0 4.4-3.6 8-8 8H76c-4.4 0-8-3.6-8-8v-48c0-4.4 3.6-8 8-8h48c4.4 0 8 3.6 8 8v48z"/><path fill="#71C5D6" d="M84 167.6h32v32H84z"/><path fill="#9AD2DE" d="M136.7 148.3l-1.4-1.4 20.3-20.3H180v2h-23.6"/><circle fill="#71C5D6" cx="140" cy="143.6" r="4"/><path fill="#C2DFE5" d="M140 149.6c-3.3 0-6-2.7-6-6s2.7-6 6-6 6 2.7 6 6-2.7 6-6 6zm0-8c-1.1 0-2 .9-2 2s.9 2 2 2 2-.9 2-2-.9-2-2-2z"/><path fill="#9AD2DE" d="M59.3 152.3L43 136v-32.4h2v31.6l15.7 15.7"/><circle fill="#71C5D6" cx="60" cy="151.6" r="4"/><path fill="#C2DFE5" d="M60 157.6c-3.3 0-6-2.7-6-6s2.7-6 6-6 6 2.7 6 6-2.7 6-6 6zm0-8c-1.1 0-2 .9-2 2s.9 2 2 2 2-.9 2-2-.9-2-2-2z"/><path fill="#9AD2DE" d="M143 231.6h2V264h-2zm16 0h2V264h-2z"/><circle fill="#71C5D6" cx="144" cy="231.6" r="4"/><path fill="#C2DFE5" d="M144 237.6c-3.3 0-6-2.7-6-6s2.7-6 6-6 6 2.7 6 6-2.7 6-6 6zm0-8c-1.1 0-2 .9-2 2s.9 2 2 2 2-.9 2-2-.9-2-2-2z"/><circle fill="#71C5D6" cx="160" cy="231.6" r="4"/><path fill="#C2DFE5" d="M160 237.6c-3.3 0-6-2.7-6-6s2.7-6 6-6 6 2.7 6 6-2.7 6-6 6zm0-8c-1.1 0-2 .9-2 2s.9 2 2 2 2-.9 2-2-.9-2-2-2z"/><g fill="#9AD2DE"><path d="M228 232c17.7 0 32 14.3 32 32h-64c0-17.7 14.3-32 32-32zm-92-48c44.2 0 80 35.8 80 80H56c0-44.2 35.8-80 80-80zm-96 40c22.1 0 40 17.9 40 40H0c0-22.1 17.9-40 40-40zm164 24c8.8 0 16 7.2 16 16h-32c0-8.8 7.2-16 16-16z"/><circle cx="192" cy="236" r="28"/></g><path fill="#71C5D6" d="M188 260c0 2.2 1.8 4 4 4h56c2.2 0 4-1.8 4-4V44c0-2.2-1.8-4-4-4h-56c-2.2 0-4 1.8-4 4v216z"/><path d="M188 64h56v16h-56zm0 24h56v8h-56zm0-40h56v8h-56zm0 176h56v16h-56zm0 24h56v8h-56zm0-40h56v8h-56z" fill="#9AD2DE"/><path fill="#71C5D6" d="M440 8c2.2 0 4 1.8 4 4v248c0 2.2-1.8 4-4 4H300V8h140z"/><path fill="#9AD2DE" d="M244 262c0 1.1.9 2 2 2h60c1.1 0 2-.9 2-2V10c0-1.1-.9-2-2-2h-60c-1.1 0-2 .9-2 2v252z"/><path fill="#C2DFE5" d="M244 32h64v16h-64zm0 192h64v16h-64z"/><path fill="#49B8CF" d="M560 192c13.3 0 24 10.7 24 24v24c0 13.3-10.7 24-24 24H436v-72h124z"/><path fill="#71C5D6" d="M552 240v-24c0-13.3-10.7-24-24-24h16c13.3 0 24 10.7 24 24v24c0 13.3-10.7 24-24 24h-16c13.3 0 24-10.7 24-24zm-76 0v-24c0-13.3-10.7-24-24-24h16c13.3 0 24 10.7 24 24v24c0 13.3-10.7 24-24 24h-16c13.3 0 24-10.7 24-24z"/><path fill="#C2DFE5" d="M308 208h136v40H308z"/><path fill="#71C5D6" d="M436 192c13.3 0 24 10.7 24 24v24c0 13.3-10.7 24-24 24H300v-16h136c4.4 0 8-3.6 8-8v-24c0-4.4-3.6-8-8-8H300v-16h136zm140-88c13.3 0 24 10.7 24 24v40c0 13.3-10.7 24-24 24H452v-88h124z"/><path fill="#C2DFE5" d="M324 120h136v56H324z"/><path fill="#9AD2DE" d="M452 104c13.3 0 24 10.7 24 24v40c0 13.3-10.7 24-24 24H316v-16h136c4.4 0 8-3.6 8-8v-40c0-4.4-3.6-8-8-8H316v-16h136z"/><circle fill="#9AD2DE" cx="440" cy="52" r="52"/><path fill="#71C5D6" d="M467.9 8.1C473 16.2 476 25.7 476 36c0 28.7-23.3 52-52 52-10.3 0-19.8-3-27.9-8.1 9.2 14.5 25.4 24.1 43.9 24.1 28.7 0 52-23.3 52-52 0-18.5-9.6-34.7-24.1-43.9z"/><circle fill="#C2DFE5" cx="420" cy="48" r="16"/><path fill="#49B8CF" d="M420 40.7c1.5 0 2.7.3 3.5.9s1.3 1.5 1.3 2.6c0 .8-.2 1.4-.6 2s-1 1.1-1.9 1.5c1.1.6 1.8 1.2 2.2 1.8s.6 1.2.6 1.9c0 1.3-.5 2.3-1.4 2.9s-2.2 1-3.8 1c-1.7 0-3-.3-3.9-1s-1.3-1.7-1.3-2.9c0-.8.2-1.5.6-2.1s1.1-1.1 2-1.6c-.8-.5-1.3-1.1-1.7-1.6s-.5-1.2-.5-1.9c0-1.1.4-1.9 1.3-2.6s2.1-.9 3.6-.9zm-1.7 10.6c0 .4.1.7.4 1s.7.4 1.2.4c1.1 0 1.7-.4 1.7-1.3 0-.3-.1-.6-.4-.9s-.7-.7-1.3-1c-.6.3-1 .6-1.2.9s-.4.5-.4.9zm1.7-7.8c-.3 0-.6.1-.8.3s-.3.4-.3.7c0 .6.4 1.1 1.1 1.5.5-.3.8-.5.9-.7s.3-.5.3-.8c0-.3-.1-.6-.3-.8s-.6-.2-.9-.2z"/><path fill="#C2DFE5" d="M156 240c5.4 0 10.4 1.8 14.4 4.8 5.8-7.8 15.1-12.8 25.6-12.8 12.1 0 22.6 6.7 28 16.5 1.3-.3 2.6-.5 4-.5 8.8 0 16 7.2 16 16H132c0-13.3 10.7-24 24-24zm-6.5-169.1c.3-1.2.8-1.2 1.1 0l1.2 4.6c.3 1.2 1.5 2.4 2.7 2.7l4.6 1.2c1.2.3 1.2.8 0 1.1l-4.6 1.2c-1.2.3-2.4 1.5-2.7 2.7l-1.2 4.6c-.3 1.2-.8 1.2-1.1 0l-1.2-4.6c-.3-1.2-1.5-2.4-2.7-2.7l-4.6-1.2c-1.2-.3-1.2-.8 0-1.1l4.6-1.2c1.2-.3 2.4-1.5 2.7-2.7l1.2-4.6zm-56 34c.3-1.2.8-1.2 1.1 0l1.2 4.6c.3 1.2 1.5 2.4 2.7 2.7l4.6 1.2c1.2.3 1.2.8 0 1.1l-4.6 1.2c-1.2.3-2.4 1.5-2.7 2.7l-1.2 4.6c-.3 1.2-.8 1.2-1.1 0l-1.2-4.6c-.3-1.2-1.5-2.4-2.7-2.7l-4.6-1.2c-1.2-.3-1.2-.8 0-1.1l4.6-1.2c1.2-.3 2.4-1.5 2.7-2.7l1.2-4.6zm8.2-55.4c.2-.6.4-.6.5 0l.6 2.3c.2.6.8 1.2 1.4 1.4l2.3.6c.6.2.6.4 0 .5l-2.3.6c-.6.2-1.2.8-1.4 1.4l-.6 2.3c-.2.6-.4.6-.5 0l-.6-2.3c-.2-.6-.8-1.2-1.4-1.4l-2.3-.6c-.6-.2-.6-.4 0-.5l2.3-.6c.6-.2 1.2-.8 1.4-1.4l.6-2.3zm54.9 79.7c.2-.6.4-.6.5 0l.6 2.3c.2.6.8 1.2 1.4 1.4l2.3.6c.6.2.6.4 0 .5l-2.3.6c-.6.2-1.2.8-1.4 1.4l-.6 2.3c-.2.6-.4.6-.5 0l-.6-2.3c-.2-.6-.8-1.2-1.4-1.4l-2.3-.6c-.6-.2-.6-.4 0-.5l2.3-.6c.6-.2 1.2-.8 1.4-1.4l.6-2.3z"/></svg>