<svg xmlns="http://www.w3.org/2000/svg" viewBox="0 0 512 512"><path d="M502.023 185.022C471.25 78.168 372.757 0 256 0 114.615 0 0 114.615 0 256c0 116.757 78.168 215.25 185.023 246.022l317-317z" fill="#3b3c45"/><path d="M512 256c0-24.627-3.486-48.439-9.977-70.978L391.001 74 121 438l64.023 64.022C207.561 508.514 231.373 512 256 512c141.385 0 256-114.615 256-256z" fill="#3b3c45"/><path fill="#ffedba" d="M391 74H256l-46.956 182L256 438h65l20-50 50-20.001z"/><path fill="#fff" d="M121 74h135v364H121z"/><g fill="#ffedba"><path d="M171 398h20v20h-20zM141 368h20v20h-20z"/></g><path fill="#ffc65c" d="M321 368h70l-70 70z"/><path d="M291 281c0 19.299-15.701 35-35 35l-10 10 10 10c30.327 0 55-24.673 55-55h-20z" fill="#83818f"/><path d="M221 281h-20c0 30.327 24.673 55 55 55v-20c-19.299 0-35-15.701-35-35z" fill="#c5bcc2"/><path d="M299.202 164.426L256 121.982 246 136l10 14.019 38.226 37.556L341 170.341V281c0 46.869-38.131 85-85 85l-10 10 10 10c57.897 0 105-47.103 105-105V141.659l-61.798 22.767z" fill="#83818f"/><g fill="#c5bcc2"><path d="M212.798 164.426L151 141.659V261h20v-90.659l46.775 17.233L256 150.019v-28.037zM171 281h-20c0 57.897 47.103 105 105 105v-20c-46.869 0-85-38.131-85-85z"/></g><path fill="#83818f" d="M351 221h-95l-20 10 20 10h95z"/><path fill="#c5bcc2" d="M161 221h95v20h-95z"/></svg>