<svg xmlns="http://www.w3.org/2000/svg" viewBox="0 0 512 512"><path d="M503.983 4.276H8.017A8.016 8.016 0 0 0 0 12.292v487.415a8.017 8.017 0 0 0 8.017 8.017h495.967a8.017 8.017 0 0 0 8.017-8.017V12.292a8.018 8.018 0 0 0-8.018-8.016z" fill="#e6eaea"/><path d="M503.983 4.276H8.017A8.016 8.016 0 0 0 0 12.292v110.63h512V12.292a8.016 8.016 0 0 0-8.017-8.016z" fill="#9baaab"/><path d="M8.017 4.276A8.016 8.016 0 0 0 0 12.292v487.415a8.017 8.017 0 0 0 8.017 8.017H256V4.276H8.017z" fill="#cdd4d5"/><path d="M8.017 4.276A8.016 8.016 0 0 0 0 12.292v110.63h256V4.276H8.017z" fill="#687f82"/><path d="M264.551 29.929c-18.566 0-33.67 15.105-33.67 33.67s15.105 33.67 33.67 33.67 33.67-15.105 33.67-33.67-15.104-33.67-33.67-33.67z" fill="#4acfd9"/><path d="M170.489 29.929c-18.566 0-33.67 15.105-33.67 33.67s15.105 33.67 33.67 33.67 33.67-15.105 33.67-33.67-15.105-33.67-33.67-33.67z" fill="#ff8c29"/><path d="M76.426 29.929c-18.566 0-33.67 15.105-33.67 33.67s15.105 33.67 33.67 33.67 33.67-15.105 33.67-33.67-15.104-33.67-33.67-33.67z" fill="#f0353d"/><path d="M427.023 54.514H332.96c-4.428 0-8.017-3.589-8.017-8.017s3.588-8.017 8.017-8.017h94.063c4.428 0 8.017 3.589 8.017 8.017s-3.589 8.017-8.017 8.017zm42.756 0h-17.102c-4.428 0-8.017-3.589-8.017-8.017s3.588-8.017 8.017-8.017h17.102c4.428 0 8.017 3.589 8.017 8.017s-3.589 8.017-8.017 8.017z" fill="#fff"/><path d="M464.942 290.914l-81.236-76.959c-4.664-4.419-10.771-6.767-17.19-6.583a23.893 23.893 0 0 0-16.809 7.501c-4.419 4.664-6.757 10.768-6.583 17.191.174 6.421 2.837 12.391 7.501 16.809l62.274 58.995-61.769 55.267c-4.788 4.283-7.62 10.175-7.977 16.589a23.89 23.89 0 0 0 6.091 17.371 24.093 24.093 0 0 0 17.927 8.014h.003a24.018 24.018 0 0 0 16.029-6.127l81.236-72.685a24.111 24.111 0 0 0 8.01-17.581 24.123 24.123 0 0 0-7.507-17.802zM306.48 219.121c-11.495-6.614-26.226-2.647-32.842 8.843l-81.236 141.094c-6.618 11.492-2.65 26.225 8.843 32.843a24.068 24.068 0 0 0 11.983 3.21c8.585 0 16.577-4.619 20.857-12.053l81.236-141.093a23.899 23.899 0 0 0 2.382-18.252 23.896 23.896 0 0 0-11.223-14.592z" fill="#fd6a33"/><path d="M192.402 369.058c-6.618 11.492-2.65 26.225 8.843 32.843a24.068 24.068 0 0 0 11.983 3.21c8.585 0 16.577-4.619 20.857-12.053l21.913-38.06v-96.4l-63.596 110.46zm-23.525-136.995a23.89 23.89 0 0 0-6.582-17.191 23.897 23.897 0 0 0-16.811-7.501 23.922 23.922 0 0 0-17.19 6.582l-81.236 76.96a24.115 24.115 0 0 0-7.507 17.801 24.11 24.11 0 0 0 8.011 17.581l81.237 72.686a24.012 24.012 0 0 0 16.029 6.126h.003a24.083 24.083 0 0 0 17.927-8.013c8.842-9.883 7.996-25.117-1.887-33.96l-61.769-55.267 62.274-58.995a23.897 23.897 0 0 0 7.501-16.809z" fill="#f0353d"/></svg>