<svg xmlns="http://www.w3.org/2000/svg" xmlns:xlink="http://www.w3.org/1999/xlink" width="80" height="80"><path fill="#3B3C45" d="M40 0C17.9 0 0 17.9 0 40c0 11.2 4.6 21.3 12 28.6V64h16v14.2c3.8 1.2 7.8 1.8 12 1.8 22.1 0 40-17.9 40-40S62.1 0 40 0z"/><defs><circle id="a" cx="40" cy="40" r="40"/></defs><clipPath id="b"><use xlink:href="#a" overflow="visible"/></clipPath><g clip-path="url(#b)"><linearGradient id="c" gradientUnits="userSpaceOnUse" x1="12" y1="22" x2="68" y2="22"><stop offset="0" stop-color="#21ABC7"/><stop offset="1" stop-color="#616DB3"/></linearGradient><path fill="url(#c)" d="M60 12H20c-4.4 0-8 3.6-8 8v12h56V20c0-4.4-3.6-8-8-8z"/><linearGradient id="d" gradientUnits="userSpaceOnUse" x1="12" y1="50" x2="68" y2="50"><stop offset="0" stop-color="#F0F2F3"/><stop offset="1" stop-color="#B1BFC3"/></linearGradient><path fill="url(#d)" d="M12 32v28c0 4.4 3.6 8 8 8h40c4.4 0 8-3.6 8-8V32H12z"/><path fill="#21ABC7" d="M62 24c0 .5-.5 1-1 1H21c-.5 0-1-.5-1-1v-4c0-.5.5-1 1-1h40c.5 0 1 .5 1 1v4z"/><path fill="#616DB3" d="M28 12h4v20h-4z"/><path fill="#B1BFC3" d="M28 32h4v36h-4z"/><path d="M36.6 55.8l-.7-2.7h-4.6l-.7 2.7h-4.2l4.7-14.3h5.1l4.7 14.3h-4.3zM35.1 50l-.6-2.3c-.1-.5-.3-1.2-.5-2s-.3-1.4-.4-1.8c-.1.3-.2.9-.3 1.6s-.7 2.2-1.3 4.5h3.1zm14.7 5.8l-.7-1.5H49c-.5.6-1 1.1-1.6 1.3s-1.2.4-2 .4c-1 0-1.9-.3-2.5-.9s-.9-1.5-.9-2.7c0-1.2.4-2.1 1.2-2.6s2-.9 3.6-1l1.8-.1v-.2c0-.9-.4-1.4-1.3-1.4-.8 0-1.8.3-3.1.8l-1.1-2.5c1.3-.7 2.9-1 4.9-1 1.4 0 2.5.4 3.3 1.1s1.2 1.7 1.2 2.9v7.3h-2.7zM47 53.3c.5 0 .9-.1 1.2-.4s.5-.7.5-1.1v-.9h-.9c-1.3 0-1.9.5-1.9 1.4 0 .7.4 1 1.1 1z" fill="#5C5A69"/><linearGradient id="e" gradientUnits="userSpaceOnUse" x1="20" y1="79" x2="20" y2="12"><stop offset="0" stop-color="#59BC69"/><stop offset="1" stop-color="#C0D84D"/></linearGradient><path fill="url(#e)" d="M12 12h16v67H12z"/><path d="M12 20h8m-8 4h4m-4 4h4m-4 4h4m-4 4h8m-8 4h4m-4 4h4m-4 4h4m-4 4h8m-8 4h4m-4 4h4m-4 4h4m-4 4h8" fill="none" stroke="#59BC69" stroke-width="2" stroke-miterlimit="10"/></g></svg>