<svg xmlns="http://www.w3.org/2000/svg" width="502" height="288"><path fill="#9AD2DE" d="M298.747 78.635L310.06 89.95 168.64 231.37l-11.313-11.315z"/><path fill="#71C5D6" d="M310.06 89.93l11.314 11.313-141.42 141.42-11.314-11.314z"/><path fill="#9AD2DE" d="M321.4 101.3L344 56l-33.9 33.9"/><path fill="#C2DFE5" d="M310.1 89.9L344 56l-45.3 22.6"/><path fill="#9AD2DE" d="M155.2 240.6l-7.1-7.1c-1.2-1.2-3.1-1.2-4.2 0l-29.7 29.7c-1.2 1.2-1.2 3.1 0 4.2l9.2 9.2 31.8-31.8c1.2-1.2 1.2-3.1 0-4.2z"/><path fill="#71C5D6" d="M344 56l-15.1 7.5 7.6 7.6"/><path fill="#49B8CF" d="M344 56l-11.3 11.3 3.8 3.8"/><path fill="#C2DFE5" d="M157.33 219.985l11.314 11.314-28.284 28.283-11.313-11.314z"/><path fill="#71C5D6" d="M159.4 244.8l7.1 7.1c1.2 1.2 1.2 3.1 0 4.2l-29.7 29.7c-1.2 1.2-3.1 1.2-4.2 0l-9.2-9.2 31.8-31.8c1.2-1.2 3.1-1.2 4.2 0z"/><path fill="#9AD2DE" d="M168.645 231.42l11.313 11.314-28.284 28.284-11.313-11.313zm-15.605-7.12l11.315 11.313-2.83 2.828-11.312-11.313zm-16.87 16.97l11.314 11.314-2.828 2.828-11.314-11.314z"/><path fill="#71C5D6" d="M147.472 252.56l11.313 11.314-2.828 2.83-11.314-11.315zm16.883-16.966l11.314 11.313-2.83 2.83-11.313-11.315zM94 256h408v32H94z"/><path fill="#9AD2DE" d="M502 200H94v56h408v-56zm-392 40c0-4.4 3.6-8 8-8s8 3.6 8 8-3.6 8-8 8-8-3.6-8-8zm360 0c0-4.4 3.6-8 8-8s8 3.6 8 8-3.6 8-8 8-8-3.6-8-8z"/><path fill="#71C5D6" d="M484 200h4v8h-4zm-8 0h4v8h-4zm-8 0h4v8h-4zm-8 0h4v16h-4zm-24 0h4v8h-4zm-8 0h4v16h-4zm-8 0h4v8h-4zm-8 0h4v8h-4zm-8 0h4v8h-4zm-8 0h4v16h-4zm-8 0h4v8h-4zm-8 0h4v8h-4zm-8 0h4v8h-4zm-8 0h4v16h-4zm-8 0h4v8h-4zm-8 0h4v8h-4zm-8 0h4v8h-4zm-8 0h4v16h-4zm-8 0h4v8h-4zm-8 0h4v8h-4zm-8 0h4v8h-4zm-8 0h4v16h-4zm-8 0h4v8h-4zm-8 0h4v8h-4zm-8 0h4v8h-4zm-8 0h4v16h-4zm-8 0h4v8h-4zm-8 0h4v8h-4zm-8 0h4v8h-4zm-8 0h4v16h-4zm-8 0h4v8h-4zm-8 0h4v8h-4zm-8 0h4v8h-4zm-8 0h4v16h-4zm-8 0h4v8h-4zm-8 0h4v8h-4zm-24 0h4v8h-4zm-8 0h4v8h-4zm-8 0h4v8h-4zm-8 0h4v16h-4zm-8 0h4v8h-4zm-8 0h4v8h-4zm-8 0h4v8h-4zm-8 0h4v16h-4zm324 0h24v88h-24z"/><path fill="#49B8CF" d="M432 256h24v32h-24z"/><path fill="#C2DFE5" d="M440 284c0 2.2-1.8 4-4 4h-88c-2.2 0-4-1.8-4-4V4c0-2.2 1.8-4 4-4h88c2.2 0 4 1.8 4 4v280z"/><path fill="#9AD2DE" d="M436 0h-88c-2.2 0-4 1.8-4 4v20h96V4c0-2.2-1.8-4-4-4z"/><path fill="#71C5D6" d="M360 8l-6 4 6 4"/><path fill="#9AD2DE" d="M352 32h80v64h-80z"/><path fill="#71C5D6" d="M394.8 67.6l13.2-2.2L376 40v37.5l9.9-6.6 8.9 17.7 8.8-4.5"/><path fill="#49B8CF" d="M385.9 70.9l8.9 17.7 4.5-2.3L376 40v37.5"/><path fill="#71C5D6" d="M352 32h80v4h-80zm64 86v-6h-52v10h4c0-2.2 1.8-4 4-4h12v42c0 2.2-1.8 4-4 4v4h20v-4c-2.2 0-4-1.8-4-4v-42h12c2.2 0 4 1.8 4 4h4v-4zm0 50h12v-12"/><path fill="#9AD2DE" d="M364 208h56v44h-56z"/><path fill="#71C5D6" d="M416 212v36h-48v-36h48m4-4h-56v44h56v-44zm8 44v12h-12M16 96h152v136H16z"/><path fill="#C2DFE5" d="M16 232h152v56H16z"/><path fill="#9AD2DE" d="M0 96h152v136H0z"/><path fill="#C2DFE5" d="M0 232h152v56H0z"/><path d="M22 247.1c0 .8-.2 1.4-.7 1.8s-1.1.7-2 .7h-.5v2.4h-1.9v-7.1h2.5c.9 0 1.6.2 2 .6s.6.9.6 1.6zm-3.3 1h.4c.3 0 .5-.1.7-.2s.3-.4.3-.7c0-.5-.3-.7-.8-.7h-.5v1.6zm9.1 3.9l-.4-1.3h-2.3l-.4 1.3h-2.1l2.3-7.2h2.6l2.4 7.2h-2.1zm-.8-2.9l-.3-1.2c-.1-.3-.2-.6-.3-1s-.2-.7-.2-.9c0 .2-.1.4-.2.8s-.3 1.1-.6 2.3H27zm10.7 2.9h-2.5l-2.6-5c.1.8.1 1.4.1 1.8v3.2H31v-7.1h2.5l2.6 5c0-.7-.1-1.3-.1-1.7V245h1.7v7zm5 0h-1.9v-5.6h-1.7v-1.6h5.4v1.6h-1.7v5.6zm9.8-3.6c0 1.2-.3 2.1-.9 2.7s-1.5.9-2.6.9-2-.3-2.6-.9-.9-1.5-.9-2.7c0-1.2.3-2.1.9-2.7.6-.6 1.5-.9 2.6-.9s2 .3 2.6.9.9 1.5.9 2.7zm-4.9 0c0 1.4.5 2.1 1.4 2.1.5 0 .9-.2 1.1-.5s.4-.9.4-1.6c0-.7-.1-1.2-.4-1.6s-.6-.5-1.1-.5c-1 0-1.4.7-1.4 2.1zm13.3 3.6h-2.5l-2.6-5c.1.8.1 1.4.1 1.8v3.2h-1.7v-7.1h2.5l2.6 5c0-.7-.1-1.3-.1-1.7V245h1.7v7zm6 0h-4.2v-7.1h4.2v1.5h-2.3v1.1h2.1v1.5h-2.1v1.3h2.3v1.7zm-46.3 12h-2v-5.1c-.1.1-.3.3-.4.5l-.8.7-1-1.2 2.5-2h1.7v7.1zm7.5-1.4h-.8v1.4h-1.9v-1.4h-2.8v-1.4l3-4.3h1.8v4.3h.8v1.4zm-2.7-1.4v-1.8h-.1c-.1.3-.2.5-.4.7l-.8 1.2h1.3zm9 1.4h-.8v1.4h-1.9v-1.4h-2.8v-1.4l3-4.3h1.8v4.3h.8v1.4zm-2.7-1.4v-1.8h-.1c-.1.3-.2.5-.4.7l-.8 1.2h1.3zM152 96h4v136h-4z" fill="#49B8CF"/><path fill="#9AD2DE" d="M152 232h4v56h-4z"/><path fill="#71C5D6" d="M168 200h16v56h-16z"/><path fill="#49B8CF" d="M168 256h16v32h-16zm12-56h4v8h-4zm-8 0h4v16h-4zm280 0h4v8h-4zm-8 0h4v8h-4z"/></svg>