<svg xmlns="http://www.w3.org/2000/svg" viewBox="0 0 512.001 512.001"><path d="M97.211 0C70.804 0 49.32 21.484 49.32 47.891V464.11c0 26.406 21.484 47.89 47.891 47.89h137.787V0H97.211z" fill="#efefef"/><path d="M77.849 464.109V47.891C77.849 21.484 99.333 0 125.74 0H97.211C70.804 0 49.32 21.484 49.32 47.891V464.11c0 26.406 21.484 47.89 47.891 47.89h28.529c-26.407 0-47.891-21.484-47.891-47.891z" fill="#ddd"/><path d="M102.06 26.716c-13.316 0-24.211 10.895-24.211 24.211v56.664c0 13.316 10.895 24.211 24.211 24.211 13.316 0 24.211-10.895 24.211-24.211V50.927c0-13.316-10.895-24.211-24.211-24.211z" fill="#535454"/><path d="M102.06 107.59V50.927c0-8.913 4.885-16.735 12.105-20.937-16.082-9.36-36.316 2.407-36.316 20.937v56.664c0 18.521 20.223 30.304 36.316 20.937-7.22-4.203-12.105-12.025-12.105-20.938z" fill="#444443"/><path d="M414.789 0H234.997c-26.407 0-47.891 21.484-47.891 47.891V464.11c0 26.407 21.484 47.891 47.891 47.891h179.792c26.407 0 47.891-21.484 47.891-47.891V47.891C462.68 21.484 441.197 0 414.789 0z" fill="#535454"/><path d="M213.636 464.109V47.891C213.636 21.484 235.119 0 261.526 0h-26.529c-26.407 0-47.891 21.484-47.891 47.891V464.11c0 26.407 21.484 47.891 47.891 47.891h26.529c-26.407-.001-47.89-21.485-47.89-47.892z" fill="#444443"/><path d="M436.146 464.109c0 11.795-9.562 21.357-21.357 21.357H234.997c-11.795 0-21.357-9.562-21.357-21.357V47.891c0-11.795 9.562-21.357 21.357-21.357h22.407a7.992 7.992 0 0 1 7.992 7.992v5.068c0 6.8 5.563 12.363 12.363 12.363h94.267c6.8 0 12.363-5.563 12.363-12.363v-7.33a5.731 5.731 0 0 1 5.731-5.731h24.669c11.795 0 21.357 9.562 21.357 21.357v416.219z" fill="#a4d9f4"/><path d="M239.119 464.109V47.891c0-11.155 8.555-20.3 19.46-21.261-1.241-.184.079-.056-23.582-.096-11.795 0-21.357 9.562-21.357 21.357V464.11c0 11.795 9.562 21.357 21.357 21.357h25.478c-11.794-.001-21.356-9.562-21.356-21.358z" fill="#7cc9e8"/><g fill="#666"><path d="M355.99 34.261h-40.343a7.727 7.727 0 0 1 0-15.454h40.343a7.727 7.727 0 0 1 0 15.454zM287.057 32.959c-5.532-3.636-4.191-12.525 2.771-14.001 4.736-.977 9.242 2.691 9.242 7.572 0 3.589-2.477 6.806-6.223 7.583-.494.092-4.217-.09-5.79-1.154zM97.77 58.386c-3.674-2.51-4.433-7.304-2.132-10.715 4.089-6.211 14.145-3.457 14.145 4.286 0 3.737-2.687 6.912-6.213 7.572-.963.202-4.018.028-5.8-1.143z"/></g><path d="M97.77 85.688c-3.674-2.51-4.433-7.304-2.132-10.715 3.204-4.983 11.083-4.536 13.558 1.329 1.17 2.765.59 6.159-1.669 8.417-1.842 1.842-6.587 3.052-9.757.969z" fill="#f9d698"/><path d="M97.77 112.978c-5.099-3.351-4.404-11.132 1.329-13.558 8.094-3.163 14.221 6.808 8.428 12.6-2.009 2.009-6.327 3.302-9.757.958z" fill="#666"/><path d="M263.357 114.163h-20.676a3.457 3.457 0 0 1-3.446-3.446V90.04a3.457 3.457 0 0 1 3.446-3.446h20.676a3.457 3.457 0 0 1 3.446 3.446v20.676a3.455 3.455 0 0 1-3.446 3.447z" fill="#70b5e8"/><path d="M312.034 114.163h-20.676a3.457 3.457 0 0 1-3.446-3.446V90.04a3.457 3.457 0 0 1 3.446-3.446h20.676a3.457 3.457 0 0 1 3.446 3.446v20.676a3.457 3.457 0 0 1-3.446 3.447z" fill="#efefef"/><path d="M360.71 114.163h-20.676a3.457 3.457 0 0 1-3.446-3.446V90.04a3.457 3.457 0 0 1 3.446-3.446h20.676a3.457 3.457 0 0 1 3.446 3.446v20.676a3.457 3.457 0 0 1-3.446 3.447z" fill="#92b620"/><path d="M409.386 114.163H388.71a3.457 3.457 0 0 1-3.446-3.446V90.04a3.457 3.457 0 0 1 3.446-3.446h20.676a3.457 3.457 0 0 1 3.446 3.446v20.676a3.457 3.457 0 0 1-3.446 3.447z" fill="#898989"/><path d="M263.357 163.319h-20.676a3.457 3.457 0 0 1-3.446-3.446v-20.676a3.457 3.457 0 0 1 3.446-3.446h20.676a3.457 3.457 0 0 1 3.446 3.446v20.676a3.455 3.455 0 0 1-3.446 3.446z" fill="#92b620"/><path d="M312.034 163.319h-20.676a3.457 3.457 0 0 1-3.446-3.446v-20.676a3.457 3.457 0 0 1 3.446-3.446h20.676a3.457 3.457 0 0 1 3.446 3.446v20.676a3.457 3.457 0 0 1-3.446 3.446z" fill="#898989"/><path d="M360.71 163.319h-20.676a3.457 3.457 0 0 1-3.446-3.446v-20.676a3.457 3.457 0 0 1 3.446-3.446h20.676a3.457 3.457 0 0 1 3.446 3.446v20.676a3.457 3.457 0 0 1-3.446 3.446z" fill="#70b5e8"/><path d="M409.386 163.319H388.71a3.457 3.457 0 0 1-3.446-3.446v-20.676a3.457 3.457 0 0 1 3.446-3.446h20.676a3.457 3.457 0 0 1 3.446 3.446v20.676a3.457 3.457 0 0 1-3.446 3.446z" fill="#f94a46"/><path d="M263.357 213.114h-20.676a3.457 3.457 0 0 1-3.446-3.446v-20.676a3.457 3.457 0 0 1 3.446-3.446h20.676a3.457 3.457 0 0 1 3.446 3.446v20.676a3.455 3.455 0 0 1-3.446 3.446z" fill="#dda36f"/><path d="M312.034 213.114h-20.676a3.457 3.457 0 0 1-3.446-3.446v-20.676a3.457 3.457 0 0 1 3.446-3.446h20.676a3.457 3.457 0 0 1 3.446 3.446v20.676a3.457 3.457 0 0 1-3.446 3.446z" fill="#f9d698"/><path d="M360.71 213.114h-20.676a3.457 3.457 0 0 1-3.446-3.446v-20.676a3.457 3.457 0 0 1 3.446-3.446h20.676a3.457 3.457 0 0 1 3.446 3.446v20.676a3.457 3.457 0 0 1-3.446 3.446z" fill="#898989"/><path d="M409.386 213.114H388.71a3.457 3.457 0 0 1-3.446-3.446v-20.676a3.457 3.457 0 0 1 3.446-3.446h20.676a3.457 3.457 0 0 1 3.446 3.446v20.676a3.457 3.457 0 0 1-3.446 3.446z" fill="#f9d698"/><g fill="#70b5e8"><path d="M263.357 262.27h-20.676a3.457 3.457 0 0 1-3.446-3.446v-20.676a3.457 3.457 0 0 1 3.446-3.446h20.676a3.457 3.457 0 0 1 3.446 3.446v20.676a3.455 3.455 0 0 1-3.446 3.446zM312.034 262.27h-20.676a3.457 3.457 0 0 1-3.446-3.446v-20.676a3.457 3.457 0 0 1 3.446-3.446h20.676a3.457 3.457 0 0 1 3.446 3.446v20.676a3.457 3.457 0 0 1-3.446 3.446z"/></g><path d="M360.71 262.27h-20.676a3.457 3.457 0 0 1-3.446-3.446v-20.676a3.457 3.457 0 0 1 3.446-3.446h20.676a3.457 3.457 0 0 1 3.446 3.446v20.676a3.457 3.457 0 0 1-3.446 3.446z" fill="#f94a46"/><path d="M263.357 311.426h-20.676a3.457 3.457 0 0 1-3.446-3.446v-20.676a3.457 3.457 0 0 1 3.446-3.446h20.676a3.457 3.457 0 0 1 3.446 3.446v20.676a3.455 3.455 0 0 1-3.446 3.446z" fill="#efefef"/><path d="M312.034 311.426h-20.676a3.457 3.457 0 0 1-3.446-3.446v-20.676a3.457 3.457 0 0 1 3.446-3.446h20.676a3.457 3.457 0 0 1 3.446 3.446v20.676a3.457 3.457 0 0 1-3.446 3.446z" fill="#92b620"/><path d="M360.71 311.426h-20.676a3.457 3.457 0 0 1-3.446-3.446v-20.676a3.457 3.457 0 0 1 3.446-3.446h20.676a3.457 3.457 0 0 1 3.446 3.446v20.676a3.457 3.457 0 0 1-3.446 3.446z" fill="#898989"/><path d="M409.386 262.27H388.71a3.457 3.457 0 0 1-3.446-3.446v-20.676a3.457 3.457 0 0 1 3.446-3.446h20.676a3.457 3.457 0 0 1 3.446 3.446v20.676a3.457 3.457 0 0 1-3.446 3.446z" fill="#ffb70d"/><path d="M263.358 463.095h-20.676a3.457 3.457 0 0 1-3.446-3.446v-20.676a3.457 3.457 0 0 1 3.446-3.446h20.676a3.457 3.457 0 0 1 3.446 3.446v20.676a3.457 3.457 0 0 1-3.446 3.446z" fill="#92b620"/><path d="M312.034 463.095h-20.676a3.457 3.457 0 0 1-3.446-3.446v-20.676a3.457 3.457 0 0 1 3.446-3.446h20.676a3.457 3.457 0 0 1 3.446 3.446v20.676a3.457 3.457 0 0 1-3.446 3.446z" fill="#70b5e8"/><path d="M360.71 463.095h-20.676a3.457 3.457 0 0 1-3.446-3.446v-20.676a3.457 3.457 0 0 1 3.446-3.446h20.676a3.457 3.457 0 0 1 3.446 3.446v20.676a3.457 3.457 0 0 1-3.446 3.446z" fill="#92b620"/><path d="M409.386 463.095H388.71a3.457 3.457 0 0 1-3.446-3.446v-20.676a3.457 3.457 0 0 1 3.446-3.446h20.676a3.457 3.457 0 0 1 3.446 3.446v20.676a3.457 3.457 0 0 1-3.446 3.446z" fill="#efefef"/></svg>