<svg xmlns="http://www.w3.org/2000/svg" width="536" height="288" viewBox="0 0 536 288"><path fill="#49B8CF" d="M104 200c0 4.4-3.6 8-8 8h-88c-4.4 0-8-3.6-8-8v-112c0-4.4 3.6-8 8-8h88c4.4 0 8 3.6 8 8v112z"/><circle fill="#9AD2DE" cx="12" cy="92" r="4"/><circle fill="#C2DFE5" cx="24" cy="92" r="4"/><circle fill="#71C5D6" cx="36" cy="92" r="4"/><path stroke="#9AD2DE" stroke-width="6" stroke-linecap="round" stroke-miterlimit="10" d="M16 112h72m-64 12h32m-32 60h16m-16-48h56m-64 12h72m-72 12h24m-24 12h72" fill="none"/><path fill="#49B8CF" d="M224 160h104v24h-104z"/><path fill="#9AD2DE" d="M64 184h160v104h-160z"/><path fill="#71C5D6" d="M64 280h160v8h-160zm160-96h104v104h-104zm-164-24h168v24h-168z"/><path fill="#49B8CF" d="M224 280h104v8h-104z"/><path fill="#C2DFE5" d="M369.896 71.581l14.104-22.323 14.104 22.323 20.312-16.872 6.515 25.589 24.531-9.77-1.711 26.35 26.35-1.711-9.77 24.531 25.589 6.515-16.872 20.312 22.323 14.104-22.323 14.104 16.872 20.311-25.589 6.516 9.77 24.531-26.35-1.711 1.711 26.35-24.531-9.77-6.515 25.589-20.312-16.873-14.104 22.324-14.104-22.324-20.312 16.873-6.515-25.589-24.531 9.77 1.711-26.35-26.35 1.711 9.77-24.531-25.589-6.516 16.872-20.311-22.323-14.104 22.323-14.104-16.872-20.312 25.589-6.515-9.77-24.531 26.35 1.711-1.711-26.35 24.531 9.77 6.515-25.589z"/><path fill="#49B8CF" d="M448 0c-8.836 0-16 7.163-16 16v24h32v-24c0-8.837-7.164-16-16-16z"/><path fill="#9AD2DE" d="M448 0h-96c-8.836 0-16 7.163-16 16v120h96v-120c0-8.837 7.164-16 16-16zm-32 120h-80v16c0 8.837-7.164 16-16 16h96c8.836 0 16-7.163 16-16s-7.164-16-16-16z"/><path fill="#49B8CF" d="M400 136v-16h-96v16c0 8.837 7.164 16 16 16h96c-8.836 0-16-7.163-16-16z"/><path fill="#71C5D6" d="M362.504 35.805l-1.032-3.388h-5.189l-1.032 3.388h-3.251l5.023-14.291h3.69l5.043 14.291h-3.252zm-1.752-5.919c-.954-3.07-1.491-4.806-1.611-5.208-.12-.402-.206-.72-.258-.954-.214.831-.827 2.885-1.84 6.162h3.709zm12.616-5.169c1.285 0 2.291.501 3.018 1.504.727 1.003 1.09 2.377 1.09 4.123 0 1.798-.375 3.19-1.124 4.176-.75.986-1.77 1.48-3.062 1.48-1.279 0-2.281-.464-3.008-1.392h-.204l-.496 1.197h-2.268v-15.147h2.969v3.524c0 .448-.039 1.165-.117 2.151h.117c.694-1.077 1.722-1.616 3.085-1.616zm-.954 2.375c-.733 0-1.269.226-1.606.677-.337.451-.513 1.196-.526 2.234v.321c0 1.168.174 2.005.521 2.512.347.506.897.759 1.65.759.61 0 1.095-.281 1.455-.842.36-.561.54-1.378.54-2.448 0-1.071-.182-1.874-.545-2.409-.363-.536-.859-.804-1.489-.804zm11.935 8.908c-3.388 0-5.082-1.859-5.082-5.578 0-1.85.461-3.263 1.382-4.24s2.242-1.465 3.962-1.465c1.259 0 2.388.247 3.388.74l-.876 2.297c-.467-.188-.902-.342-1.304-.462s-.805-.18-1.207-.18c-1.545 0-2.317 1.097-2.317 3.29 0 2.129.772 3.193 2.317 3.193.571 0 1.1-.076 1.587-.229s.973-.391 1.46-.716v2.541c-.48.305-.965.516-1.455.633-.49.118-1.108.176-1.855.176z"/><path stroke="#71C5D6" stroke-width="8" stroke-miterlimit="10" d="M396 32h20m-64 16h64m-64 16h64m-64 16h64m-64 16h64" fill="none"/><path fill="#9AD2DE" d="M272 168h128v120h-128z"/><path fill="#71C5D6" d="M400 168h104v120h-104zm0 0l-32-32h-128l32 32z"/><path fill="#49B8CF" d="M400 168l32-32h104l-32 32z"/><path fill="#C2DFE5" d="M348 216c0 2.2-1.8 4-4 4h-56c-2.2 0-4-1.8-4-4v-32c0-2.2 1.8-4 4-4h56c2.2 0 4 1.8 4 4v32z"/><path fill="#9AD2DE" d="M288 184h56v32h-56z"/><path stroke="#C2DFE5" stroke-width="4" stroke-miterlimit="10" d="M300 192h32m-32 8h32m-32 8h16" fill="none"/><path fill="#C2DFE5" d="M104 184l-40 40v40l80-80z"/><g fill="#71C5D6"><path d="M190 280h-46c-11.028 0-20-8.972-20-20s8.972-20 20-20h40c2.206 0 4-1.794 4-4s-1.794-4-4-4h-20v-16h20c11.028 0 20 8.972 20 20s-8.972 20-20 20h-40c-2.206 0-4 1.794-4 4s1.794 4 4 4h46v16z"/><circle cx="160" cy="224" r="12"/><circle cx="140" cy="224" r="8"/><path d="M140 216l17.271-3.685v23.37l-17.271-3.685zm32 64c0-8.837 7.163-16 16-16s16 7.163 16 16"/></g><path fill="#C2DFE5" d="M160 184l-96 96h8l96-96zm64 16l-80 80h24l56-56z"/><path d="M184 240l-16 16h16c4.573 0 8.779-1.56 12.152-4.152l3.696-3.696c2.592-3.373 4.152-7.579 4.152-12.152 0-4.495-1.509-8.635-4.022-11.978l-11.978 11.978c0 2.206-1.794 4-4 4zm-24 24l-16 16h24l16-16zM152 104c-13.255 0-24 10.745-24 24h104v-24h-80z" fill="#9AD2DE"/><path fill="#71C5D6" d="M232 104c-13.255 0-24 10.745-24 24h48c0-13.255-10.745-24-24-24z"/><path stroke="#9AD2DE" stroke-width="8" stroke-miterlimit="10" d="M216 128v32m-32-32v32" fill="none"/><path fill="#9AD2DE" d="M422 202h8v14h-8zm-4-18h16v16h-16z"/><path fill="#C2DFE5" d="M422 184h4v16h-4z"/><path fill="#9AD2DE" d="M432 208h-8v3.338c-14.125 6.173-24 20.261-24 36.662s9.875 30.489 24 36.662v3.338h8c22.091 0 40-17.909 40-40s-17.909-40-40-40z"/><circle fill="#C2DFE5" cx="424" cy="248" r="40"/><circle fill="#71C5D6" cx="424" cy="248" r="32"/><path fill="#49B8CF" d="M395 251c0-17.673 14.327-32 32-32 8.073 0 15.442 2.996 21.072 7.928-5.865-6.695-14.472-10.928-24.072-10.928-17.673 0-32 14.327-32 32 0 9.6 4.233 18.206 10.928 24.072-4.932-5.63-7.928-12.999-7.928-21.072z"/><circle fill="#49B8CF" cx="424" cy="248" r="6"/><path stroke="#49B8CF" stroke-width="4" stroke-linecap="round" stroke-miterlimit="10" d="M424 248l16.971 16.971m-24.972-24.972l8.001 8.001" fill="none"/><circle stroke="#9AD2DE" stroke-width="2" stroke-miterlimit="10" cx="424" cy="230" r="8" fill="none"/><circle fill="#9AD2DE" cx="424" cy="248" r="2"/><path stroke="#9AD2DE" stroke-width="2" stroke-miterlimit="10" d="M447 248h4m-54 0h4m23 23v4" fill="none"/></svg>