<svg xmlns="http://www.w3.org/2000/svg" viewBox="0 0 512 512"><g transform="translate(1 1)"><path d="M502.467 41.667v452.267a8.558 8.558 0 0 1-8.533 8.533H16.067a8.558 8.558 0 0 1-8.533-8.533V41.667h494.933z" fill="#607d8b"/><path d="M476.869 41.667l-.002 452.267a8.346 8.346 0 0 1-8.092 8.533H15.625a8.346 8.346 0 0 1-8.092-8.533L7.531 41.667h469.338z" fill="#cfd8dc"/><path d="M502.467 16.067v42.667H7.533V16.067a8.558 8.558 0 0 1 8.533-8.533h477.867a8.558 8.558 0 0 1 8.534 8.533z" fill="#00838f"/><path d="M476.867 16.067l.002 42.667H7.531l.002-42.667a8.346 8.346 0 0 1 8.092-8.533h453.149a8.346 8.346 0 0 1 8.093 8.533z" fill="#00bcd4"/><path d="M203.8 289.133V152.6c-.028-9.414-7.652-17.039-17.067-17.067H67.267c-9.414.028-17.039 7.652-17.067 17.067v213.333c.028 9.414 7.652 17.039 17.067 17.067h119.467c9.414-.028 17.039-7.652 17.067-17.067v-42.667" fill="#f5f5f5"/><path d="M459.8 109.933V127H306.2v-17.067c.027-9.414 7.652-17.039 17.067-17.067h119.467c9.414.028 17.039 7.653 17.066 17.067z" fill="#37474f"/><path d="M459.8 127v196.267c-.028 9.414-7.652 17.039-17.067 17.067H323.267c-9.414-.028-17.039-7.652-17.067-17.067V127h153.6z" fill="#f5f5f5"/><path d="M459.8 400.067v17.067H306.2v-17.067c.027-9.414 7.652-17.039 17.067-17.067h119.467c9.414.028 17.039 7.652 17.066 17.067z" fill="#37474f"/><path fill="#f5f5f5" d="M459.8 417.133v85.334H306.2v-85.334z"/><path d="M203.8 442.733V459.8H50.2v-17.067c.028-9.414 7.652-17.039 17.067-17.067h119.467c9.414.028 17.039 7.653 17.066 17.067z" fill="#37474f"/><path fill="#f5f5f5" d="M203.8 459.8v42.667H50.2V459.8z"/><circle cx="127" cy="272.067" r="34.133" fill="#ff5722"/><path fill="#ffeb3a" d="M348.867 161.133H383V203.8h-34.133z"/><path fill="#ff5722" d="M331.8 237.933H383V280.6h-51.2z"/><path d="M383 511h-51.2a8.533 8.533 0 0 1-8.533-8.533v-51.2a8.533 8.533 0 0 1 8.533-8.533H383a8.533 8.533 0 0 1 8.533 8.533v51.2A8.533 8.533 0 0 1 383 511zm-42.667-17.067h34.133V459.8h-34.133v34.133z"/><path fill="#e91e63" d="M383 340.333v-25.6h-51.2v25.6"/><path d="M203.8 152.6v17.067H50.2V152.6c.028-9.414 7.652-17.039 17.067-17.067h119.467c9.414.028 17.039 7.653 17.066 17.067z" fill="#37474f"/><g fill="#607d8b"><path d="M434.2 109.933V127h-128v-17.067c-.686-8.609 5.631-16.189 14.222-17.067h99.555c8.592.879 14.909 8.459 14.223 17.067zM434.2 400.067v17.067h-128v-17.067c-.686-8.609 5.631-16.189 14.222-17.067h99.555c8.592.878 14.909 8.458 14.223 17.067zM178.2 442.733V459.8h-128v-17.067c-.686-8.609 5.631-16.189 14.222-17.067h99.555c8.592.879 14.909 8.459 14.223 17.067zM178.2 152.6v17.067h-128V152.6c-.686-8.609 5.631-16.189 14.222-17.067h99.555c8.592.878 14.909 8.458 14.223 17.067z"/></g><g fill="#cc4b4c"><circle cx="203.8" cy="306.2" r="17.067"/><circle cx="306.2" cy="178.2" r="17.067"/></g><path fill="#ffeb3a" d="M331.8 451.267H383v51.2h-51.2z"/></g><path d="M494.933 0H17.067C7.645.009.009 7.645 0 17.067v477.867c.009 9.422 7.645 17.057 17.067 17.067h477.867c9.422-.009 17.057-7.645 17.067-17.067V17.067C511.991 7.645 504.355.009 494.933 0zm.001 17.067V51.2H17.067V17.067h477.867zm-298.667 435.2H59.733v-8.533a8.544 8.544 0 0 1 8.533-8.533h119.467a8.544 8.544 0 0 1 8.533 8.533v8.533zM59.733 469.333h136.533v25.6H59.733v-25.6zM452.267 409.6H315.733v-8.533a8.544 8.544 0 0 1 8.533-8.533h119.467a8.544 8.544 0 0 1 8.533 8.533v8.533zm-136.534 17.067h136.533v68.267h-59.733v-42.667a8.533 8.533 0 0 0-8.533-8.533h-51.2a8.533 8.533 0 0 0-8.533 8.533v42.667h-8.533v-68.267zm25.6 68.266V460.8h34.133v34.133h-34.133zm128 0v-93.867c-.015-14.132-11.468-25.585-25.6-25.6H324.267c-14.132.015-25.585 11.468-25.6 25.6v93.867h-85.333v-51.2c-.015-14.132-11.468-25.585-25.6-25.6H68.267c-14.132.015-25.585 11.468-25.6 25.6v51.2h-25.6V68.267h477.868l.011 426.667h-25.613z"/><path d="M42.667 42.667h51.2a8.535 8.535 0 0 0 0-17.067h-51.2a8.534 8.534 0 0 0 0 17.067zM128 42.667h17.067a8.533 8.533 0 0 0 0-17.066H128a8.533 8.533 0 0 0 0 17.066zM179.2 42.667h17.067a8.533 8.533 0 0 0 0-17.066H179.2a8.533 8.533 0 0 0 0 17.066zM230.4 42.667h17.067a8.533 8.533 0 0 0 0-17.066H230.4a8.533 8.533 0 0 0 0 17.066zM281.6 42.667h17.067a8.533 8.533 0 0 0 0-17.066H281.6a8.533 8.533 0 0 0 0 17.066zM469.333 42.667h8.533a8.533 8.533 0 0 0 0-17.066h-8.533a8.533 8.533 0 0 0 0 17.066zM443.733 85.333H324.267c-14.132.015-25.585 11.468-25.6 25.6v44.239A25.558 25.558 0 0 0 281.6 179.2c0 .465.113.899.137 1.358a74.129 74.129 0 0 0-34.271 66.908c0 21.855-7.316 36.967-21.718 45.098a25.618 25.618 0 0 0-12.415-9.392V153.6c-.015-14.132-11.468-25.585-25.6-25.6H68.267c-14.132.015-25.585 11.468-25.6 25.6v213.333c.015 14.132 11.468 25.585 25.6 25.6h119.467c14.132-.015 25.585-11.468 25.6-25.6v-35.706a25.494 25.494 0 0 0 16.835-21.737c14.883-7.107 34.365-23.723 34.365-62.024a57.558 57.558 0 0 1 23.98-50.891 25.532 25.532 0 0 0 10.153 6.652v121.04c.015 14.132 11.468 25.585 25.6 25.6h119.467c14.132-.015 25.585-11.468 25.6-25.6V110.933c-.016-14.132-11.469-25.584-25.601-25.6zM68.267 145.067h119.467a8.544 8.544 0 0 1 8.533 8.533v8.533H59.733V153.6a8.544 8.544 0 0 1 8.534-8.533zm119.466 230.4H68.267a8.544 8.544 0 0 1-8.533-8.533V179.2h136.533v103.972a25.447 25.447 0 0 0 0 48.054v35.706a8.545 8.545 0 0 1-8.534 8.535zm17.067-59.734a8.533 8.533 0 1 1 8.533-8.533 8.544 8.544 0 0 1-8.533 8.533zM324.267 102.4h119.467a8.544 8.544 0 0 1 8.533 8.533v8.533H315.733v-8.533a8.544 8.544 0 0 1 8.534-8.533zM307.2 170.667a8.533 8.533 0 1 1-8.533 8.533 8.544 8.544 0 0 1 8.533-8.533zM375.467 332.8h-34.133v-8.533h34.133v8.533zm76.8-8.533a8.544 8.544 0 0 1-8.533 8.533h-51.2v-17.067a8.533 8.533 0 0 0-8.533-8.533h-51.2a8.533 8.533 0 0 0-8.533 8.533V332.8a8.544 8.544 0 0 1-8.533-8.533V203.228a25.448 25.448 0 0 0 0-48.056v-18.639h136.533v187.734z"/><path d="M170.667 273.067c0-23.564-19.103-42.667-42.667-42.667s-42.667 19.103-42.667 42.667 19.103 42.667 42.667 42.667c23.553-.028 42.639-19.115 42.667-42.667zM128 298.667c-14.138 0-25.6-11.462-25.6-25.6s11.462-25.6 25.6-25.6c14.139 0 25.6 11.462 25.6 25.6-.015 14.132-11.468 25.584-25.6 25.6zM110.933 332.8h-25.6a8.533 8.533 0 0 0 0 17.066h25.6a8.533 8.533 0 0 0 0-17.066zM170.667 332.8h-25.6a8.533 8.533 0 0 0 0 17.066h25.6a8.533 8.533 0 0 0 0-17.066zM85.333 213.333h85.333a8.533 8.533 0 0 0 0-17.066H85.333a8.533 8.533 0 0 0 0 17.066zM349.867 213.333H384a8.533 8.533 0 0 0 8.533-8.533v-42.667A8.533 8.533 0 0 0 384 153.6h-25.6a8.533 8.533 0 0 0 0 17.066h17.067v25.6h-25.6a8.533 8.533 0 0 0-8.533 8.533 8.532 8.532 0 0 0 8.533 8.534zM384 230.4h-51.2a8.533 8.533 0 0 0-8.533 8.533V281.6a8.533 8.533 0 0 0 8.533 8.533H384a8.533 8.533 0 0 0 8.533-8.533v-42.667A8.533 8.533 0 0 0 384 230.4zm-8.533 42.667h-34.133v-25.6h34.133v25.6zM409.6 170.667h17.067a8.533 8.533 0 0 0 0-17.066H409.6a8.533 8.533 0 0 0 0 17.066zM409.6 196.267h17.067a8.533 8.533 0 0 0 0-17.066H409.6a8.533 8.533 0 0 0 0 17.066zM409.6 247.467h17.067a8.533 8.533 0 0 0 0-17.066H409.6a8.533 8.533 0 0 0 0 17.066zM409.6 273.067h17.067c4.713 0 8.533-3.82 8.533-8.533S431.38 256 426.667 256H409.6a8.534 8.534 0 0 0 0 17.067zM409.6 460.8h17.067c4.713 0 8.533-3.82 8.533-8.533s-3.82-8.533-8.533-8.533H409.6c-4.713 0-8.533 3.82-8.533 8.533s3.82 8.533 8.533 8.533zM409.6 486.4h17.067c4.713 0 8.533-3.82 8.533-8.533s-3.82-8.533-8.533-8.533H409.6a8.533 8.533 0 0 0 0 17.066zM409.6 324.267h17.067a8.533 8.533 0 0 0 0-17.066H409.6a8.533 8.533 0 0 0 0 17.066z"/></svg>