<svg id="Layer_1" xmlns="http://www.w3.org/2000/svg" xmlns:xlink="http://www.w3.org/1999/xlink" viewBox="0 0 80 80"><style>.st0{fill:#3b3c45}</style><path class="st0" d="M80 40c0 12.2-5.5 23.1-14.1 30.5-7 5.9-16-16.3-25.9-16.3-9.9 0-18.9 22.2-25.8 16.3C5.5 63.2 0 52.2 0 40 0 17.9 17.9 0 40 0s40 17.9 40 40z"/><defs><circle id="SVGID_1_" cx="40" cy="40" r="40"/></defs><clipPath id="SVGID_2_"><use xlink:href="#SVGID_1_" overflow="visible"/></clipPath><g clip-path="url(#SVGID_2_)"><linearGradient id="SVGID_3_" gradientUnits="userSpaceOnUse" x1="40" y1="80" x2="40" y2="11.711"><stop offset="0" stop-color="#616db3"/><stop offset="1" stop-color="#21abc7"/></linearGradient><path d="M61.4 13.3c-14.1-2.1-28.4-2.1-42.8 0-2.6.3-4.6 2.6-4.6 5.3V80h2V19.6c0-2 1.6-3.6 3.6-3.6h40.9c2 0 3.6 1.6 3.6 3.6V80h2V18.5c-.1-2.6-2.1-4.9-4.7-5.2z" fill="url(#SVGID_3_)"/><linearGradient id="SVGID_4_" gradientUnits="userSpaceOnUse" x1="40" y1="80" x2="40" y2="14"><stop offset="0" stop-color="#3b3c45"/><stop offset="1" stop-color="#5c5a69"/></linearGradient><path d="M61 15.5c-13.9-2-27.9-2-41.9 0-1.7.3-3 1.8-3 3.5L16 80h4V32h40v48h4V19c0-1.7-1.3-3.2-3-3.5z" fill="url(#SVGID_4_)"/><path class="st0" d="M51.9 25H28.1c-.6 0-1-.4-1-1s.4-1 1-1h23.8c.6 0 1 .4 1 1s-.4 1-1 1z"/><circle class="st0" cx="23.7" cy="24" r="1.6"/><linearGradient id="SVGID_5_" gradientUnits="userSpaceOnUse" x1="40" y1="80" x2="40" y2="31.886"><stop offset="0" stop-color="#ffcd2e"/><stop offset=".076" stop-color="#fec72d"/><stop offset=".411" stop-color="#fab02c"/><stop offset=".726" stop-color="#f8a22a"/><stop offset="1" stop-color="#f79d2a"/></linearGradient><path d="M20 31.9h40V80H20z" fill="url(#SVGID_5_)"/><linearGradient id="SVGID_6_" gradientUnits="userSpaceOnUse" x1="14.011" y1="92.861" x2="-27.989" y2="50.861" gradientTransform="rotate(90 25.493 76.368)"><stop offset="0" stop-color="#f79d2a"/><stop offset=".272" stop-color="#f68a35"/><stop offset="1" stop-color="#f45950"/></linearGradient><path d="M20 75.9v-44h40v4z" fill="url(#SVGID_6_)"/><linearGradient id="SVGID_7_" gradientUnits="userSpaceOnUse" x1="-18.989" y1="61.861" x2="21.011" y2="61.861" gradientTransform="rotate(90 25.493 76.368)"><stop offset="0" stop-color="#59bc69"/><stop offset="1" stop-color="#c0d84d"/></linearGradient><path d="M20 71.9v-40h40z" fill="url(#SVGID_7_)"/><linearGradient id="SVGID_8_" gradientUnits="userSpaceOnUse" x1="13.609" y1="83.818" x2="-26.291" y2="60.782" gradientTransform="rotate(90 25.493 76.368)"><stop offset="0" stop-color="#59bc69"/><stop offset="1" stop-color="#c0d84d"/></linearGradient><path d="M20 65.6V31.9h33.7z" fill="url(#SVGID_8_)"/><linearGradient id="SVGID_9_" gradientUnits="userSpaceOnUse" x1="34.5" y1="116.725" x2="54.337" y2="96.888" gradientTransform="rotate(180 47.25 74.306)"><stop offset="0" stop-color="#616db3"/><stop offset="1" stop-color="#21abc7"/></linearGradient><path d="M60 71.6V31.9H20.3z" fill="url(#SVGID_9_)"/><linearGradient id="SVGID_10_" gradientUnits="userSpaceOnUse" x1="34.5" y1="116.725" x2="50.989" y2="100.236" gradientTransform="rotate(180 47.25 74.306)"><stop offset="0" stop-color="#616db3"/><stop offset="1" stop-color="#21abc7"/></linearGradient><path d="M60 64.9v-33H27z" fill="url(#SVGID_10_)"/><path d="M20 31.9h40v3.4H20z" fill="#616db3"/><path d="M43.8 58.8c-2.3-2.3-6-2.3-8.3 0-2.3 2.3-2.3 6 0 8.3l17.4 17.3c2.3 2.3 6 2.3 8.3 0 2.3-2.3 2.3-6 0-8.3L43.8 58.8z" fill="#f79d2a"/><circle cx="40" cy="58.5" r="13.3" opacity=".25" fill="#f1f2f2"/><circle cx="40" cy="58.5" r="10.2" opacity=".5" fill="#f1f2f2"/><circle cx="40" cy="58.5" r="7" opacity=".65" fill="#f1f2f2"/><path d="M36.7 55.6c-2.3 2.3-2.3 6 0 8.3l17.4 17.3c2.3 2.3 6 2.3 8.3 0 2.3-2.3 2.3-6 0-8.3L45 55.6c-2.3-2.3-6-2.3-8.3 0" fill="#fff"/><linearGradient id="SVGID_11_" gradientUnits="userSpaceOnUse" x1="35.011" y1="69.312" x2="65.869" y2="69.312"><stop offset="0" stop-color="#c0d84d"/><stop offset="1" stop-color="#59bc69"/></linearGradient><path d="M45 55.6c-2.3-2.3-6-2.3-8.3 0-2.3 2.3-2.3 6 0 8.3L55.9 83c2.3 2.3 6 2.3 8.3 0 2.3-2.3 2.3-6 0-8.3L45 55.6z" fill="url(#SVGID_11_)"/><path d="M58 81.5L38.9 62.4c-2.2-2.2-2.3-5.8-.2-8.1-.7.3-1.4.7-2 1.3-2.3 2.3-2.3 6 0 8.3L55.8 83c2.3 2.3 6 2.3 8.3 0l.2-.2c-2.1.9-4.6.4-6.3-1.3z" fill="#59bc69"/></g></svg>