<svg xmlns="http://www.w3.org/2000/svg" viewBox="0 0 491.52 491.52"><path d="M431.957 32.735c-32.993 81.28-49.571 159.864-62.67 247.191-45.232-3.372-65.948-5.897-110.691-13.531 7.968-87.956 10.486-168.258-2.308-255.135C332.135-7.761 362.811-4.011 431.957 32.735z" fill="#3ea69b"/><path d="M347.904 267.975c-26.46-2.83-39.334-4.405-65.704-8.03 1.068-9.834-4.669-18.583-12.83-19.643 5.415-69.381 7.038-132.461 2.56-201.707 11.992-3.419 21.488-12.728 20.917-22.262 41.975-8.155 63.575-5.515 102.403 12.517-2.808 9.121 4.21 20.449 15.044 26.658-20.744 66.162-34.111 127.811-45.286 196.484-8.168-.937-15.809 6.177-17.104 15.983z" fill="#44c4a1"/><g fill="#3ea69b"><path d="M334.481 102.258c25.378 3.102 41.537 26.073 37.685 45.426-3.852 19.353-24.34 31.222-46.568 28.505-22.226-2.717-39.31-19.179-38.47-38.9.842-19.721 21.979-38.132 47.353-35.031zm9.142-76.096c5.614.686 9.552 5.288 8.854 9.879-.698 4.591-5.536 7.501-10.863 6.85-5.325-.651-9.334-4.643-8.924-9.268.408-4.627 5.321-8.147 10.933-7.461z"/><ellipse transform="rotate(-173.142 317.458 243.978)" cx="317.439" cy="243.954" rx="6.83" ry="8.422"/></g><path d="M363.692 147.484a259.63 259.63 0 0 0-5.926-1.394c-2.142 7.932-6.248 14.593-12.214 20.244a557.038 557.038 0 0 0-5.975-7.742c4.592-4.445 7.721-9.175 9.31-14.359-6.34-1.224-9.524-1.748-15.914-2.605-2.343 6.646-4.865 11.42-7.595 14.334-2.731 2.913-6.377 4.127-11 3.739-4.625-.387-8.236-2.442-10.919-6.218-2.679-3.775-3.987-8.511-3.881-14.308a262.943 262.943 0 0 0-4.169-.038c.136-2.278.201-3.417.327-5.694 1.721-.009 2.579-.008 4.296.007.87-6.559 3.35-12.777 7.646-18.617 3.059 2.381 4.565 3.61 7.53 6.127-3.039 3.856-5.014 8.104-6.008 12.718 6.315.26 9.468.479 15.75 1.111l.029-.274c2.273-6.822 4.928-11.731 7.956-14.673 3.035-2.948 7.12-4.058 12.143-3.162 5.028.897 8.811 3.657 11.273 8.047 2.471 4.391 3.253 9.627 2.478 15.716 2.361.549 3.542.836 5.895 1.434-.418 2.24-.623 3.362-1.032 5.607zm-53.568-1.545c1.094 1.611 2.547 2.477 4.373 2.613 1.823.136 3.324-.353 4.51-1.467 1.185-1.113 2.455-3.325 3.815-6.627-5.724-.552-8.595-.753-14.345-1.013-.001 2.724.55 4.883 1.647 6.494zm38.641-14.677c-1.018-1.924-2.519-3.079-4.487-3.425-1.965-.346-3.622.064-4.954 1.212-1.332 1.156-2.738 3.477-4.204 6.964 5.984.84 8.968 1.349 14.906 2.53.177-2.922-.24-5.349-1.261-7.281z" fill="#44c4a1"/><path d="M484.193 103.214c-54.483 65.688-92.783 134.72-130.349 213.352-41.469-19.522-60.178-29.4-99.954-52.814 32.932-81.082 58.535-156.821 71.673-244.355 76.679 9.182 104.379 23.82 158.63 83.817z" fill="#3ea69b"/><path d="M337.238 297.451c-24.01-12.239-35.636-18.382-59.331-31.348 3.848-9.001.997-19.42-6.354-23.373 25.161-64.271 44.94-123.895 60.779-191.605 12.243 1.059 23.847-4.404 26.071-13.709 41.749 7.346 61.254 17.652 92.471 48.859-5.275 7.693-1.968 21.036 6.402 30.867-38.613 55.673-68.999 109.699-99.361 171.219-7.394-3.839-16.624.197-20.677 9.09z" fill="#44c4a1"/><path d="M372.603 134.438c22.917 12.109 31.432 39.859 22.217 56.943-9.216 17.084-31.876 21.028-51.948 10.422-20.07-10.605-31.338-32.475-24.841-50.996 6.496-18.521 31.659-28.476 54.572-16.369zM403.204 65.1c5.07 2.679 7.433 8.491 5.45 12.621-1.983 4.13-7.366 5.164-12.176 2.622-4.808-2.54-7.415-7.796-5.692-12.063 1.722-4.269 7.351-5.858 12.418-3.18zm-84.208 190.797c3.397 1.795 4.629 6.661 2.757 10.859-1.87 4.199-6.118 6.162-9.486 4.382-3.367-1.779-4.601-6.638-2.759-10.852 1.841-4.214 6.091-6.184 9.488-4.389z" fill="#3ea69b"/><path d="M386.925 188.134a278.031 278.031 0 0 0-5.158-3.466c-4.305 6.799-10.087 11.677-17.32 14.92a619.764 619.764 0 0 0-3.366-9.544c5.596-2.587 9.901-5.974 12.892-10.35-5.595-3.454-8.432-5.102-14.18-8.223-4.122 5.499-7.87 9.147-11.276 10.944-3.406 1.797-7.178 1.64-11.405-.396-4.228-2.037-7.021-5.3-8.447-9.871-1.421-4.569-1.278-9.561.499-15.056a263.181 263.181 0 0 0-3.901-1.539c.787-2.126 1.177-3.189 1.955-5.317 1.618.611 2.423.922 4.029 1.555 2.714-5.947 6.841-10.989 12.563-15.014 2.181 3.375 3.239 5.091 5.293 8.562-3.968 2.585-7.051 5.928-9.318 9.974 5.851 2.524 8.746 3.87 14.458 6.737l.107-.251c4.107-5.692 8.02-9.421 11.712-11.137 3.701-1.72 7.855-1.307 12.31 1.359 4.458 2.668 7.209 6.667 8.249 11.744 1.047 5.082.266 10.362-2.223 15.894a265.628 265.628 0 0 1 5.117 3.494c-1.04 1.989-1.557 2.986-2.59 4.981zm-49.821-20.783c.561 1.932 1.673 3.282 3.347 4.07 1.672.787 3.221.861 4.657.226 1.435-.635 3.266-2.289 5.498-4.95-5.211-2.59-7.847-3.816-13.168-6.138-.789 2.599-.897 4.859-.334 6.792zm40.508-.081c-.399-2.203-1.473-3.846-3.22-4.887-1.744-1.039-3.418-1.244-4.999-.628-1.585.623-3.576 2.331-5.961 5.131 5.372 2.959 8.025 4.52 13.256 7.788 1.012-2.725 1.323-5.192.924-7.404z" fill="#44c4a1"/><path d="M405.915 240.282c0-18.771-14.885-33.987-33.243-33.987h-2.258c-31.754-2.96-56.891-1.892-74.498 0h-4.421v.509c-16.087 1.991-24.74 4.518-24.74 4.518l-1.766-51.248-23.31 4.93a66.866 66.866 0 0 0-34.581 19.948l-50.874 55.225a66.86 66.86 0 0 1-49.176 21.56h-6.435l-25.137 182.52 63.68.558c90.493 35.75 199.418 23.174 199.418 23.174h9.358c18.36 0 33.243-15.217 33.243-33.986 0-13.675-7.919-25.433-19.307-30.825h2.299c18.36 0 33.243-15.217 33.243-33.986 0-13.49-7.708-25.11-18.848-30.599 15.544-2.847 27.353-16.711 27.353-33.422 0-15.235-9.806-28.128-23.319-32.444 13.512-4.318 23.319-17.21 23.319-32.445z" fill="#fcd462"/><path fill="#27a2db" d="M7.327 232.55h106.691v258.97H7.327z"/><circle cx="60.672" cy="450.662" r="18.714" fill="#1c75a1"/></svg>