<?xml version="1.0" encoding="iso-8859-1"?>
<!-- Generator: Adobe Illustrator 19.0.0, SVG Export Plug-In . SVG Version: 6.00 Build 0)  -->
<svg version="1.1" id="Layer_1" xmlns="http://www.w3.org/2000/svg" xmlns:xlink="http://www.w3.org/1999/xlink" x="0px" y="0px"
	 viewBox="0 0 512 512" style="enable-background:new 0 0 512 512;" xml:space="preserve">
<path style="fill:#3b3c45;" d="M502.023,185.022C471.25,78.168,372.757,0,256,0C114.615,0,0,114.615,0,256
	c0,116.757,78.168,215.25,185.023,246.022L502.023,185.022z"/>
<path style="fill:#3b3c45;" d="M512,256c0-24.627-3.486-48.439-9.977-70.978L391.001,74L121,438l64.023,64.022
	C207.561,508.514,231.373,512,256,512C397.385,512,512,397.385,512,256z"/>
<polygon style="fill:#FFEDBA;" points="391,74 256,74 209.044,256 256,438 321,438 341,388 391,367.999 "/>
<rect x="121" y="74" style="fill:#FFFFFF;" width="135" height="364"/>
<g>
	<rect x="171" y="398" style="fill:#FFEDBA;" width="20" height="20"/>
	<rect x="141" y="368" style="fill:#FFEDBA;" width="20" height="20"/>
</g>
<polygon style="fill:#FFC65C;" points="321,368 391,368 321,438 "/>
<path style="fill:#83818F;" d="M291,281c0,19.299-15.701,35-35,35l-10,10l10,10c30.327,0,55-24.673,55-55H291z"/>
<path style="fill:#C5BCC2;" d="M221,281h-20c0,30.327,24.673,55,55,55v-20C236.701,316,221,300.299,221,281z"/>
<path style="fill:#83818F;" d="M299.202,164.426L256,121.982L246,136l10,14.019l38.226,37.556L341,170.341V281
	c0,46.869-38.131,85-85,85l-10,10l10,10c57.897,0,105-47.103,105-105V141.659L299.202,164.426z"/>
<g>
	<polygon style="fill:#C5BCC2;" points="212.798,164.426 151,141.659 151,261 171,261 171,170.341 217.775,187.574 256,150.019 
		256,121.982 	"/>
	<path style="fill:#C5BCC2;" d="M171,281h-20c0,57.897,47.103,105,105,105v-20C209.131,366,171,327.869,171,281z"/>
</g>
<polygon style="fill:#83818F;" points="351,221 256,221 236,231 256,241 351,241 "/>
<rect x="161" y="221" style="fill:#C5BCC2;" width="95" height="20"/>
<g>
</g>
<g>
</g>
<g>
</g>
<g>
</g>
<g>
</g>
<g>
</g>
<g>
</g>
<g>
</g>
<g>
</g>
<g>
</g>
<g>
</g>
<g>
</g>
<g>
</g>
<g>
</g>
<g>
</g>
</svg>
