<svg xmlns="http://www.w3.org/2000/svg" viewBox="0 0 512 512"><g fill="#85878f"><path d="M158.897 97.103a8.826 8.826 0 0 1-8.828-8.828V35.31a8.826 8.826 0 0 1 8.828-8.828 8.826 8.826 0 0 1 8.828 8.828v52.966a8.826 8.826 0 0 1-8.828 8.827z"/><path d="M158.897 132.414c-14.601 0-26.483-11.882-26.483-26.483 0-4.882 3.955-8.828 8.828-8.828s8.828 3.946 8.828 8.828c0 4.873 3.955 8.828 8.828 8.828 4.873 0 8.828-3.955 8.828-8.828 0-4.873-3.955-8.828-8.828-8.828-4.873 0-8.828-3.946-8.828-8.828s3.955-8.828 8.828-8.828c14.601 0 26.483 11.882 26.483 26.483s-11.884 26.484-26.484 26.484zm70.62-35.311a8.826 8.826 0 0 1-8.828-8.828V35.31c0-4.882 3.955-8.828 8.828-8.828s8.828 3.946 8.828 8.828v52.966a8.825 8.825 0 0 1-8.828 8.827zm70.621 0a8.826 8.826 0 0 1-8.828-8.828V35.31a8.826 8.826 0 0 1 8.828-8.828 8.826 8.826 0 0 1 8.828 8.828v52.966a8.825 8.825 0 0 1-8.828 8.827zm70.621 0a8.826 8.826 0 0 1-8.828-8.828V35.31a8.826 8.826 0 0 1 8.828-8.828 8.826 8.826 0 0 1 8.828 8.828v52.966a8.826 8.826 0 0 1-8.828 8.827z"/><path d="M229.517 132.414c-14.601 0-26.483-11.882-26.483-26.483a8.826 8.826 0 0 1 8.828-8.828 8.826 8.826 0 0 1 8.828 8.828c0 4.873 3.955 8.828 8.828 8.828s8.828-3.955 8.828-8.828c0-4.873-3.955-8.828-8.828-8.828s-8.828-3.946-8.828-8.828 3.955-8.828 8.828-8.828c14.601 0 26.483 11.882 26.483 26.483s-11.883 26.484-26.484 26.484zm70.621 0c-14.601 0-26.483-11.882-26.483-26.483 0-4.882 3.955-8.828 8.828-8.828s8.828 3.946 8.828 8.828c0 4.873 3.955 8.828 8.828 8.828 4.873 0 8.828-3.955 8.828-8.828 0-4.873-3.955-8.828-8.828-8.828-4.873 0-8.828-3.946-8.828-8.828s3.955-8.828 8.828-8.828c14.601 0 26.483 11.882 26.483 26.483s-11.883 26.484-26.484 26.484zm70.621 0c-14.601 0-26.483-11.882-26.483-26.483a8.826 8.826 0 0 1 8.828-8.828 8.826 8.826 0 0 1 8.828 8.828c0 4.873 3.955 8.828 8.828 8.828 4.873 0 8.828-3.955 8.828-8.828 0-4.873-3.955-8.828-8.828-8.828-4.873 0-8.828-3.946-8.828-8.828s3.955-8.828 8.828-8.828c14.601 0 26.483 11.882 26.483 26.483s-11.884 26.484-26.484 26.484z"/></g><g fill="#7f5240"><path d="M238.345 335.448a8.826 8.826 0 0 1-8.828-8.828v-44.138a8.826 8.826 0 0 1 8.828-8.828 8.826 8.826 0 0 1 8.828 8.828v44.138a8.826 8.826 0 0 1-8.828 8.828z"/><path d="M247.164 335.448a8.775 8.775 0 0 1-5.288-1.766c-3.902-2.922-4.687-8.457-1.766-12.35l26.483-35.31c2.931-3.902 8.466-4.679 12.359-1.766 3.902 2.922 4.687 8.457 1.766 12.35l-26.483 35.31a8.81 8.81 0 0 1-7.071 3.532z"/><path d="M229.526 335.448a8.822 8.822 0 0 1-7.071-3.531l-26.483-35.31c-2.922-3.893-2.136-9.428 1.766-12.35 3.902-2.913 9.437-2.136 12.359 1.766l26.483 35.31c2.922 3.893 2.136 9.428-1.766 12.35a8.8 8.8 0 0 1-5.288 1.765z"/></g><path d="M344.276 123.586c-11.564 0-21.892 1.121-30.897 3.098-9.004-1.977-19.332-3.098-30.897-3.098s-21.892 1.121-30.897 3.098c-9.004-1.977-19.332-3.098-30.897-3.098s-21.892 1.121-30.897 3.098c-9.004-1.977-19.332-3.098-30.897-3.098-43.882 0-70.621 15.81-70.621 35.31v17.655h26.483v70.621h273.655v-70.621h26.483v-17.655c.003-19.5-26.736-35.31-70.618-35.31z" fill="#d7c4b0"/><path d="M406.069 79.448a8.826 8.826 0 0 1-8.828-8.828V35.31c0-4.882 3.955-8.828 8.828-8.828s8.828 3.946 8.828 8.828v35.31a8.826 8.826 0 0 1-8.828 8.828zm-291.31 0a8.826 8.826 0 0 1-8.828-8.828V35.31c0-4.882 3.955-8.828 8.828-8.828s8.828 3.946 8.828 8.828v35.31a8.827 8.827 0 0 1-8.828 8.828z" fill="#85878f"/><circle cx="44.138" cy="485.517" r="26.483" fill="#6c79ba"/><path fill="#85878f" d="M0 432.552h88.276v26.483H0z"/><path fill="#bdbfc4" d="M26.483 35.31h35.31v397.241h-35.31z"/><circle cx="467.862" cy="485.517" r="26.483" fill="#6c79ba"/><path fill="#85878f" d="M423.724 432.552H512v26.483h-88.276z"/><path fill="#bdbfc4" d="M450.207 35.31h35.31v397.241h-35.31z"/><path d="M494.345 35.31H17.655C7.901 35.31 0 27.41 0 17.655 0 7.901 7.901 0 17.655 0h476.69C504.099 0 512 7.901 512 17.655c0 9.755-7.901 17.655-17.655 17.655z" fill="#d3d6dc"/><path d="M203.034 176.552h26.483v-17.655c0-19.5-26.739-35.31-70.621-35.31s-70.621 15.81-70.621 35.31v17.655h26.483v70.621h88.276v-70.621z" fill="#34b250"/><path d="M220.69 123.586c-11.564 0-21.892 1.121-30.897 3.098 25.176 5.508 39.724 17.849 39.724 32.212v17.655h-26.483v70.621h61.793v-70.621h26.483v-17.655c0-19.5-26.738-35.31-70.62-35.31z" fill="#ebcc43"/><path d="M282.483 123.586c-11.564 0-21.892 1.121-30.897 3.098 25.176 5.508 39.724 17.849 39.724 32.212v17.655h-26.483v70.621h61.793v-70.621h26.483v-17.655c0-19.5-26.738-35.31-70.62-35.31z" fill="#e98316"/><path d="M344.276 123.586c-11.564 0-21.892 1.121-30.897 3.098 25.176 5.508 39.724 17.849 39.724 32.212v17.655H326.62v70.621h61.793v-70.621h26.483v-17.655c.001-19.5-26.738-35.31-70.62-35.31z" fill="#f32631"/><path fill="#85878f" d="M61.793 361.931h388.414v35.31H61.793z"/><path fill="#79a4d7" d="M300.138 326.621h105.931v35.31H300.138z"/><path fill="#34b250" d="M317.793 291.31h70.621v35.31h-70.621z"/><path fill="#f5bd6c" d="M211.862 326.621h52.966v35.31h-52.966z"/><path fill="#f02631" d="M97.103 282.483h35.31v79.448h-35.31z"/><path fill="#ebcc43" d="M132.414 300.138h35.31v61.793h-35.31z"/></svg>