<?xml version="1.0" encoding="iso-8859-1"?>
<!-- Generator: Adobe Illustrator 19.0.0, SVG Export Plug-In . SVG Version: 6.00 Build 0)  -->
<svg version="1.1" id="Capa_1" xmlns="http://www.w3.org/2000/svg" xmlns:xlink="http://www.w3.org/1999/xlink" x="0px" y="0px"
	 viewBox="0 0 512 512" style="enable-background:new 0 0 512 512;" xml:space="preserve">
<g>
	<path style="fill:#85878F;" d="M158.897,97.103c-4.873,0-8.828-3.946-8.828-8.828V35.31c0-4.882,3.955-8.828,8.828-8.828
		c4.873,0,8.828,3.946,8.828,8.828v52.966C167.724,93.158,163.769,97.103,158.897,97.103z"/>
	<path style="fill:#85878F;" d="M158.897,132.414c-14.601,0-26.483-11.882-26.483-26.483c0-4.882,3.955-8.828,8.828-8.828
		s8.828,3.946,8.828,8.828c0,4.873,3.955,8.828,8.828,8.828c4.873,0,8.828-3.955,8.828-8.828c0-4.873-3.955-8.828-8.828-8.828
		c-4.873,0-8.828-3.946-8.828-8.828s3.955-8.828,8.828-8.828c14.601,0,26.483,11.882,26.483,26.483S173.497,132.414,158.897,132.414
		z"/>
	<path style="fill:#85878F;" d="M229.517,97.103c-4.873,0-8.828-3.946-8.828-8.828V35.31c0-4.882,3.955-8.828,8.828-8.828
		s8.828,3.946,8.828,8.828v52.966C238.345,93.158,234.39,97.103,229.517,97.103z"/>
	<path style="fill:#85878F;" d="M300.138,97.103c-4.873,0-8.828-3.946-8.828-8.828V35.31c0-4.882,3.955-8.828,8.828-8.828
		c4.873,0,8.828,3.946,8.828,8.828v52.966C308.966,93.158,305.011,97.103,300.138,97.103z"/>
	<path style="fill:#85878F;" d="M370.759,97.103c-4.873,0-8.828-3.946-8.828-8.828V35.31c0-4.882,3.955-8.828,8.828-8.828
		c4.873,0,8.828,3.946,8.828,8.828v52.966C379.586,93.158,375.631,97.103,370.759,97.103z"/>
	<path style="fill:#85878F;" d="M229.517,132.414c-14.601,0-26.483-11.882-26.483-26.483c0-4.882,3.955-8.828,8.828-8.828
		c4.873,0,8.828,3.946,8.828,8.828c0,4.873,3.955,8.828,8.828,8.828s8.828-3.955,8.828-8.828c0-4.873-3.955-8.828-8.828-8.828
		s-8.828-3.946-8.828-8.828s3.955-8.828,8.828-8.828c14.601,0,26.483,11.882,26.483,26.483S244.118,132.414,229.517,132.414z"/>
	<path style="fill:#85878F;" d="M300.138,132.414c-14.601,0-26.483-11.882-26.483-26.483c0-4.882,3.955-8.828,8.828-8.828
		s8.828,3.946,8.828,8.828c0,4.873,3.955,8.828,8.828,8.828c4.873,0,8.828-3.955,8.828-8.828c0-4.873-3.955-8.828-8.828-8.828
		c-4.873,0-8.828-3.946-8.828-8.828s3.955-8.828,8.828-8.828c14.601,0,26.483,11.882,26.483,26.483S314.739,132.414,300.138,132.414
		z"/>
	<path style="fill:#85878F;" d="M370.759,132.414c-14.601,0-26.483-11.882-26.483-26.483c0-4.882,3.955-8.828,8.828-8.828
		c4.873,0,8.828,3.946,8.828,8.828c0,4.873,3.955,8.828,8.828,8.828c4.873,0,8.828-3.955,8.828-8.828
		c0-4.873-3.955-8.828-8.828-8.828c-4.873,0-8.828-3.946-8.828-8.828s3.955-8.828,8.828-8.828c14.601,0,26.483,11.882,26.483,26.483
		S385.359,132.414,370.759,132.414z"/>
</g>
<g>
	<path style="fill:#7F5240;" d="M238.345,335.448c-4.873,0-8.828-3.946-8.828-8.828v-44.138c0-4.882,3.955-8.828,8.828-8.828
		c4.873,0,8.828,3.946,8.828,8.828v44.138C247.172,331.502,243.218,335.448,238.345,335.448z"/>
	<path style="fill:#7F5240;" d="M247.164,335.448c-1.845,0-3.699-0.574-5.288-1.766c-3.902-2.922-4.687-8.457-1.766-12.35
		l26.483-35.31c2.931-3.902,8.466-4.679,12.359-1.766c3.902,2.922,4.687,8.457,1.766,12.35l-26.483,35.31
		C252.504,334.23,249.847,335.448,247.164,335.448z"/>
	<path style="fill:#7F5240;" d="M229.526,335.448c-2.684,0-5.332-1.218-7.071-3.531l-26.483-35.31
		c-2.922-3.893-2.136-9.428,1.766-12.35c3.902-2.913,9.437-2.136,12.359,1.766l26.483,35.31c2.922,3.893,2.136,9.428-1.766,12.35
		C233.225,334.874,231.362,335.448,229.526,335.448z"/>
</g>
<path style="fill:#D7C4B0;" d="M344.276,123.586c-11.564,0-21.892,1.121-30.897,3.098c-9.004-1.977-19.332-3.098-30.897-3.098
	s-21.892,1.121-30.897,3.098c-9.004-1.977-19.332-3.098-30.897-3.098s-21.892,1.121-30.897,3.098
	c-9.004-1.977-19.332-3.098-30.897-3.098c-43.882,0-70.621,15.81-70.621,35.31v17.655h26.483v70.621h88.276h61.793h61.793h61.793
	v-70.621h26.483v-17.655C414.897,139.396,388.158,123.586,344.276,123.586z"/>
<g>
	<path style="fill:#85878F;" d="M406.069,79.448c-4.873,0-8.828-3.946-8.828-8.828V35.31c0-4.882,3.955-8.828,8.828-8.828
		s8.828,3.946,8.828,8.828v35.31C414.897,75.502,410.942,79.448,406.069,79.448z"/>
	<path style="fill:#85878F;" d="M114.759,79.448c-4.873,0-8.828-3.946-8.828-8.828V35.31c0-4.882,3.955-8.828,8.828-8.828
		s8.828,3.946,8.828,8.828v35.31C123.586,75.502,119.631,79.448,114.759,79.448z"/>
</g>
<circle style="fill:#6C79BA;" cx="44.138" cy="485.517" r="26.483"/>
<rect y="432.552" style="fill:#85878F;" width="88.276" height="26.483"/>
<rect x="26.483" y="35.31" style="fill:#BDBFC4;" width="35.31" height="397.241"/>
<circle style="fill:#6C79BA;" cx="467.862" cy="485.517" r="26.483"/>
<rect x="423.724" y="432.552" style="fill:#85878F;" width="88.276" height="26.483"/>
<rect x="450.207" y="35.31" style="fill:#BDBFC4;" width="35.31" height="397.241"/>
<path style="fill:#D3D6DC;" d="M494.345,35.31H17.655C7.901,35.31,0,27.41,0,17.655l0,0C0,7.901,7.901,0,17.655,0h476.69
	C504.099,0,512,7.901,512,17.655l0,0C512,27.41,504.099,35.31,494.345,35.31z"/>
<path style="fill:#34B250;" d="M203.034,176.552h26.483v-17.655c0-19.5-26.739-35.31-70.621-35.31s-70.621,15.81-70.621,35.31
	v17.655h26.483v70.621h88.276V176.552z"/>
<path style="fill:#EBCC43;" d="M220.69,123.586c-11.564,0-21.892,1.121-30.897,3.098c25.176,5.508,39.724,17.849,39.724,32.212
	v17.655h-26.483v70.621h61.793v-70.621h26.483v-17.655C291.31,139.396,264.572,123.586,220.69,123.586z"/>
<path style="fill:#E98316;" d="M282.483,123.586c-11.564,0-21.892,1.121-30.897,3.098c25.176,5.508,39.724,17.849,39.724,32.212
	v17.655h-26.483v70.621h61.793v-70.621h26.483v-17.655C353.103,139.396,326.365,123.586,282.483,123.586z"/>
<path style="fill:#F32631;" d="M344.276,123.586c-11.564,0-21.892,1.121-30.897,3.098c25.176,5.508,39.724,17.849,39.724,32.212
	v17.655h-26.483v70.621h61.793v-70.621h26.483v-17.655C414.897,139.396,388.158,123.586,344.276,123.586z"/>
<rect x="61.793" y="361.931" style="fill:#85878F;" width="388.414" height="35.31"/>
<rect x="300.138" y="326.621" style="fill:#79A4D7;" width="105.931" height="35.31"/>
<rect x="317.793" y="291.31" style="fill:#34B250;" width="70.621" height="35.31"/>
<rect x="211.862" y="326.621" style="fill:#F5BD6C;" width="52.966" height="35.31"/>
<rect x="97.103" y="282.483" style="fill:#F02631;" width="35.31" height="79.448"/>
<rect x="132.414" y="300.138" style="fill:#EBCC43;" width="35.31" height="61.793"/>
<g>
</g>
<g>
</g>
<g>
</g>
<g>
</g>
<g>
</g>
<g>
</g>
<g>
</g>
<g>
</g>
<g>
</g>
<g>
</g>
<g>
</g>
<g>
</g>
<g>
</g>
<g>
</g>
<g>
</g>
</svg>
