<svg xmlns="http://www.w3.org/2000/svg" viewBox="0 0 480 480"><path fill="#bf515a" d="M161.633 63.129l-9.796 5.442v-9.796H53.878l-48.98 88.164h156.735zm264.489-4.354h-97.959v9.796l-9.796-5.442v83.81h156.735z"/><path d="M161.633 146.939H14.694v293.878h146.939V146.939zm-39.184 176.326v78.368H53.877v-88.164h68.572v9.796zm0-127.347v78.368H53.877v-88.164h68.572v9.796zm195.918 244.898h146.939V146.939H318.367v293.877zm39.184-176.326v-78.368h68.572v88.164h-68.572v-9.796zm0 127.347v-78.368h68.572v88.164h-68.572v-9.796z" fill="#f2d057"/><path d="M161.633 63.129v377.688h39.184V323.265h78.367v117.551h39.184V63.129L240 19.592l-78.367 43.537zm117.551 132.789v78.368h-78.368v-88.164h78.368v9.796zm-9.796-88.163c0 16.23-13.157 29.388-29.388 29.388s-29.388-13.157-29.388-29.388S223.77 78.367 240 78.367s29.388 13.158 29.388 29.388z" fill="#e9a868"/><path fill="#95ffff" d="M63.673 264.49h39.184l-39.184-39.184z"/><path fill="#80d7f0" d="M102.857 264.49h9.796v-39.184h-48.98z"/><path fill="#6eb1e2" d="M63.673 195.918h48.98v19.592h-48.98z"/><path d="M63.673 186.122h-9.796v88.164h68.572v-88.164H63.673zm48.98 78.368h-48.98v-39.184h48.98v39.184zm0-48.98h-48.98v-19.592h48.98v19.592z" fill="#695a69"/><path fill="#95ffff" d="M210.612 264.49h39.184l-39.184-39.184z"/><path fill="#6eb1e2" d="M210.612 195.918h58.776v19.592h-58.776z"/><path fill="#80d7f0" d="M210.612 225.306l39.184 39.184h19.592v-39.184h-9.796z"/><path d="M210.612 186.122h-9.796v88.164h78.368v-88.164h-68.572zm58.776 78.368h-58.776v-39.184h58.776v39.184zm0-48.98h-58.776v-19.592h58.776v19.592z" fill="#695a69"/><path fill="#944851" d="M279.184 323.265h-78.368V480h78.368v-39.184z"/><path fill="#e9a868" d="M14.694 440.816h146.939V480H14.694zm303.673 0h146.939V480H318.367z"/><path fill="#d6805c" d="M279.184 440.816h39.184V480h-39.184zm-117.551 0h39.184V480h-39.184z"/><path fill="#944851" d="M161.633 63.129L240 19.592l78.367 43.537 9.796 5.442V48.979L240 0l-88.163 48.979v19.592z"/><path d="M210.612 107.755c0 16.23 13.157 29.388 29.388 29.388s29.388-13.157 29.388-29.388S256.23 78.367 240 78.367s-29.388 13.158-29.388 29.388zm48.98 0c0 10.82-8.772 19.592-19.592 19.592-10.82 0-19.592-8.771-19.592-19.592 0-7.082 3.77-13.268 9.401-16.709A19.459 19.459 0 0 1 240 88.163c10.82 0 19.592 8.772 19.592 19.592z" fill="#695a69"/><path d="M226.148 93.903a19.61 19.61 0 0 1 3.661-2.857c-5.63 3.442-9.401 9.627-9.401 16.709 0 10.82 8.772 19.592 19.592 19.592 10.82 0 19.592-8.771 19.592-19.592a19.52 19.52 0 0 1-5.74 13.852l-27.704-27.704zm33.444 13.852c0-10.82-8.772-19.592-19.592-19.592 10.82 0 19.592 8.773 19.592 19.592z" fill="#95ffff"/><path d="M240 88.163a19.459 19.459 0 0 0-10.191 2.883 19.652 19.652 0 0 0-3.661 2.857l27.704 27.704a19.52 19.52 0 0 0 5.74-13.852c0-10.819-8.772-19.592-19.592-19.592z" fill="#6eb1e2"/><path fill="#95ffff" d="M367.347 225.306v39.184h39.184z"/><path fill="#80d7f0" d="M416.327 264.49v-39.184h-48.98l39.184 39.184z"/><path fill="#6eb1e2" d="M367.347 195.918h48.98v19.592h-48.98z"/><path d="M416.327 274.286h9.796v-88.164h-68.572v88.164h58.776zm-48.98-78.368h48.98v19.592h-48.98v-19.592zm0 29.388h48.98v39.184h-48.98v-39.184z" fill="#695a69"/><path fill="#95ffff" d="M63.673 391.837h39.184l-39.184-39.184z"/><path fill="#80d7f0" d="M102.857 391.837h9.796v-39.184h-48.98z"/><path fill="#6eb1e2" d="M63.673 323.265h48.98v19.592h-48.98z"/><path d="M63.673 313.469h-9.796v88.164h68.572v-88.164H63.673zm48.98 78.368h-48.98v-39.184h48.98v39.184zm0-48.98h-48.98v-19.592h48.98v19.592z" fill="#695a69"/><path fill="#95ffff" d="M367.347 352.653v39.184h39.184z"/><path fill="#80d7f0" d="M416.327 391.837v-39.184h-48.98l39.184 39.184z"/><path fill="#6eb1e2" d="M367.347 323.265h48.98v19.592h-48.98z"/><path d="M416.327 401.633h9.796v-88.164h-68.572v88.164h58.776zm-48.98-78.368h48.98v19.592h-48.98v-19.592zm0 29.388h48.98v39.184h-48.98v-39.184z" fill="#695a69"/></svg>