<svg width="512" height="512" xmlns="http://www.w3.org/2000/svg" xmlns:svg="http://www.w3.org/2000/svg">
	<title>hormonot</title>
	<g>
		<title>Layer 1</title>
		<path id="svg_1" fill="#3b3c45" d="m512,256c0,19.508 -2.184,38.494 -6.311,56.738c-6.416,28.348 -17.533,54.909 -32.496,78.817c-0.637,1.024 -1.285,2.048 -1.943,3.072c-45.569,70.624 -124.95,117.373 -215.25,117.373s-169.681,-46.749 -215.249,-117.373c-19.822,-30.699 -33.249,-65.912 -38.4,-103.769c-1.191,-8.735 -1.933,-17.617 -2.215,-26.624c-0.094,-2.738 -0.136,-5.475 -0.136,-8.234c0,-24.9 3.553,-48.964 10.177,-71.722c2.654,-9.101 5.799,-17.993 9.415,-26.645c5.862,-14.106 12.967,-27.564 21.159,-40.26c45.568,-70.624 124.949,-117.373 215.249,-117.373s169.681,46.749 215.249,117.373c10.365,16.06 18.986,33.353 25.59,51.618c3.124,8.673 5.81,17.565 8.004,26.645c2.111,8.714 3.772,17.607 4.953,26.645c1.16,8.746 1.86,17.638 2.111,26.645c0.062,2.351 0.093,4.702 0.093,7.074z"/>
		<path id="svg_2" fill="#F9EED7" d="m423.249,147.37606l0,206.1165c-35.19475,75.40054 -92.50519,54.50744 -162.24899,54.50744s-135.05425,20.8931 -170.249,-33.65381l0,-287.18305c0,-9.72475 7.88499,-17.60973 17.60974,-17.60973l216.21274,0l98.67551,98.67628l0,-20.85363z"/>
		<path id="svg_3" fill="#E8DBC4" d="m324.99999,148.22261l0,-78.669197l95.759986,95.759986l-78.669197,0c-9.438835,0 -17.090789,-7.651954 -17.090789,-17.090789z"/>
		<g stroke="null" id="svg_4">
			<path stroke="null" id="svg_5" fill="#4BC999" d="m422.497993,295.64916l0,49.17286c-1.19475,109.54691 -2.50519,87.65381 -166.24899,90.65381s-163.7438,3 -166.249,-90.65381l0,-49.17286l332.49799,0l0,0z"/>
			<path stroke="null" id="svg_6" fill="#4BC999" d="m189.257874,170.593035c0,-2.729508 -1.949428,-11.826325 -1.949428,-16.113676c0,-11.825552 14.684817,-22.742041 28.459797,-22.742041c8.967061,0 11.306529,4.678164 11.306529,8.837305c0,3.7691 -1.949428,8.18698 -6.107796,8.18698c-3.898856,0 -13.385713,1.429632 -13.385713,8.447265c0,3.119548 1.949428,12.865144 1.949428,15.983921c0,3.898856 -3.119548,7.927468 -4.678936,8.447265c1.819672,0.519796 4.678936,4.288896 4.678936,8.317509c0,3.249304 -1.949428,17.673065 -1.949428,20.272817c0,5.588 8.837305,6.887104 13.385713,6.887104c4.80792,0 6.107796,5.19796 6.107796,8.447265c0,5.847512 -4.028612,8.57702 -11.566041,8.57702c-13.644452,0 -28.199513,-8.837305 -28.199513,-21.312409c0,-4.548408 1.949428,-17.544081 1.949428,-20.402573c0,-5.588 -7.797713,-1.949428 -7.797713,-11.176c-0.000772,-9.099134 7.79694,-5.330033 7.79694,-10.657749z"/>
			<path stroke="null" id="svg_7" fill="#4BC999" d="m265.800734,206.043432c0,1.559388 -0.39004,2.98902 -8.057224,20.792613c-0.779308,1.8189 -2.468452,2.338696 -3.898084,2.338696c-2.729508,0 -6.498609,-1.8189 -6.498609,-5.068204c0,-0.649552 0.129756,-1.299104 0.520568,-2.079184l3.248532,-7.01686c-3.118004,-1.8189 -5.19796,-5.068204 -5.19796,-8.837305c0,-5.458244 4.419425,-10.006653 9.876124,-10.006653c5.457472,0 10.006653,4.548408 10.006653,9.876897zm0.78008,-35.47743c0,5.327716 -4.548408,10.006653 -9.876124,10.006653c-5.717756,0 -10.00588,-4.678164 -10.00588,-10.006653c0,-5.458244 4.288124,-10.006653 10.00588,-10.006653c5.328488,0.000772 9.876124,4.549181 9.876124,10.006653z"/>
			<path stroke="null" id="svg_8" fill="#4BC999" d="m323.240897,192.424467c0,2.858492 1.948656,15.854165 1.948656,20.402573c0,12.475104 -14.555061,21.312409 -28.199513,21.312409c-7.537428,0 -11.565268,-2.729508 -11.565268,-8.57702c0,-3.248532 1.299104,-8.447265 6.107796,-8.447265c4.548408,0 13.38494,-1.299104 13.38494,-6.887104c0,-2.599752 -1.948656,-17.023513 -1.948656,-20.272817c0,-4.028612 2.859264,-7.797713 4.678164,-8.317509c-1.56016,-0.519796 -4.678164,-4.548408 -4.678164,-8.447265c0,-3.119548 1.948656,-12.865144 1.948656,-15.983921c0,-7.01686 -9.486857,-8.447265 -13.38494,-8.447265c-4.158368,0 -6.107796,-4.418652 -6.107796,-8.18698c0,-4.158368 2.338696,-8.837305 11.305756,-8.837305c13.774981,0 28.459797,10.915716 28.459797,22.742041c0,4.288124 -1.948656,13.38494 -1.948656,16.113676c0,5.327716 7.79694,1.559388 7.79694,10.656204c-0.000772,9.228889 -7.797713,5.589545 -7.797713,11.177545z"/>
		</g>
		<g id="svg_12"/>
		<g id="svg_13"/>
		<g id="svg_14"/>
		<g id="svg_15"/>
		<g id="svg_16"/>
		<g id="svg_17"/>
		<g id="svg_18"/>
		<g id="svg_19"/>
		<g id="svg_20"/>
		<g id="svg_21"/>
		<g id="svg_22"/>
		<g id="svg_23"/>
		<g id="svg_24"/>
		<g id="svg_25"/>
		<g id="svg_26"/>
		<rect stroke="null" id="svg_30" height="25" width="55" y="299" x="102" stroke-linecap="null" stroke-linejoin="null" stroke-dasharray="null" stroke-width="null" fill="#4BC999"/>
		<rect stroke="null" id="svg_32" height="137.825303" width="334.000008" y="298" x="90" stroke-linecap="null" stroke-linejoin="null" stroke-dasharray="null" stroke-width="null" fill="#4BC999"/>
		<g stroke="null" id="svg_9">
			<path stroke="null" id="svg_10" fill="#F9EED7" d="m215.809557,336.423353c-3.134718,0 -4.911532,-3.344173 -4.911532,-7.210008c0,-3.344173 1.463026,-7.001343 4.911532,-7.001343l18.286643,0c3.552838,0 7.105676,1.671691 7.105676,5.015864l0,47.336132c0,17.973645 -11.390422,24.661201 -25.078531,24.661201c-14.94326,0 -26.22935,-7.941917 -26.22935,-21.839481c0,-6.270225 2.612265,-7.732461 8.255705,-7.732461c4.179623,0 7.731671,1.045696 8.045459,4.911532c0.313788,4.076081 0.836241,10.449849 9.196278,10.449849c6.05998,0 9.509275,-3.344173 9.509275,-10.449849l0,-38.140644l-9.091155,0l0,-0.00079z"/>
			<path stroke="null" id="svg_11" fill="#F9EED7" d="m257.602629,330.049585c-0.104333,-0.41812 -0.208665,-0.83545 -0.208665,-1.149238c0,-3.866626 5.956438,-6.688346 10.449849,-6.688346c2.612265,0 4.702076,0.83545 5.328862,3.030385l14.629472,53.606357l14.52514,-53.606357c0.626785,-2.194144 2.717388,-3.030385 5.329652,-3.030385c4.492621,0 10.449058,2.82093 10.449058,6.688346c0,0.312998 -0.104333,0.731908 -0.208665,1.149238l-19.436671,63.742418c-1.149238,3.657961 -5.851315,5.433985 -10.657723,5.433985c-4.806409,0 -9.509275,-1.776814 -10.657723,-5.433985l-19.542585,-63.742418z"/>
		</g>
	</g>
</svg>