<svg width="512" height="512" xmlns="http://www.w3.org/2000/svg"><path fill="#3b3c45" d="M512 256c0 19.508-2.184 38.494-6.311 56.738a254.304 254.304 0 0 1-32.496 78.817 248.15 248.15 0 0 1-1.943 3.072C425.681 465.251 346.3 512 256 512S86.319 465.251 40.751 394.627c-19.822-30.699-33.249-65.912-38.4-103.769a256.423 256.423 0 0 1-2.215-26.624A239.652 239.652 0 0 1 0 256c0-24.9 3.553-48.964 10.177-71.722a252.129 252.129 0 0 1 9.415-26.645 254.152 254.152 0 0 1 21.159-40.26C86.319 46.749 165.7 0 256 0s169.681 46.749 215.249 117.373a255.218 255.218 0 0 1 25.59 51.618 256.203 256.203 0 0 1 8.004 26.645 251.66 251.66 0 0 1 4.953 26.645A257.12 257.12 0 0 1 512 256z"/><path fill="#F9EED7" d="M423.249 147.376v206.117C388.054 428.893 330.744 408 261 408s-135.054 20.893-170.249-33.654V87.163c0-9.725 7.885-17.61 17.61-17.61h216.212l98.676 98.677v-20.854z"/><path fill="#E8DBC4" d="M325 148.223v-78.67l95.76 95.76h-78.67c-9.438 0-17.09-7.652-17.09-17.09z"/><path d="M422.498 295.65v49.172c-1.195 109.547-2.505 87.654-166.249 90.654s-163.744 3-166.249-90.654v-49.173h332.498zm-233.24-125.057c0-2.73-1.95-11.826-1.95-16.114 0-11.825 14.685-22.742 28.46-22.742 8.967 0 11.307 4.678 11.307 8.838 0 3.769-1.95 8.187-6.108 8.187-3.899 0-13.386 1.43-13.386 8.447 0 3.12 1.95 12.865 1.95 15.984 0 3.899-3.12 7.927-4.68 8.447 1.82.52 4.68 4.289 4.68 8.318 0 3.249-1.95 17.673-1.95 20.272 0 5.588 8.838 6.887 13.386 6.887 4.808 0 6.108 5.198 6.108 8.448 0 5.847-4.029 8.577-11.566 8.577-13.645 0-28.2-8.838-28.2-21.313 0-4.548 1.95-17.544 1.95-20.402 0-5.588-7.798-1.95-7.798-11.176 0-9.1 7.797-5.33 7.797-10.658zm76.542 35.45c0 1.56-.39 2.99-8.056 20.793-.78 1.819-2.469 2.339-3.899 2.339-2.73 0-6.498-1.82-6.498-5.068 0-.65.13-1.3.52-2.08l3.249-7.017c-3.118-1.818-5.198-5.068-5.198-8.837 0-5.458 4.42-10.006 9.876-10.006 5.458 0 10.007 4.548 10.007 9.876zm.78-35.477c0 5.328-4.548 10.007-9.875 10.007-5.718 0-10.006-4.679-10.006-10.007 0-5.458 4.288-10.007 10.006-10.007 5.328.001 9.876 4.55 9.876 10.007zm56.66 21.858c0 2.859 1.95 15.855 1.95 20.403 0 12.475-14.556 21.312-28.2 21.312-7.537 0-11.565-2.73-11.565-8.577 0-3.248 1.299-8.447 6.108-8.447 4.548 0 13.385-1.299 13.385-6.887 0-2.6-1.95-17.023-1.95-20.273 0-4.028 2.86-7.797 4.679-8.317-1.56-.52-4.678-4.549-4.678-8.448 0-3.12 1.949-12.865 1.949-15.983 0-7.017-9.487-8.448-13.385-8.448-4.159 0-6.108-4.418-6.108-8.187 0-4.158 2.338-8.837 11.306-8.837 13.775 0 28.46 10.916 28.46 22.742 0 4.288-1.95 13.385-1.95 16.114 0 5.327 7.798 1.56 7.798 10.656-.001 9.229-7.798 5.59-7.798 11.177z" stroke="null" fill="#4BC999"/><path stroke="null" stroke-linecap="null" stroke-linejoin="null" stroke-dasharray="null" stroke-width="null" fill="#4BC999" d="M102 299h55v25h-55z"/><path stroke="null" stroke-linecap="null" stroke-linejoin="null" stroke-dasharray="null" stroke-width="null" fill="#4BC999" d="M90 298h334v137.825H90z"/><path d="M215.81 336.423c-3.135 0-4.912-3.344-4.912-7.21 0-3.344 1.463-7.001 4.912-7.001h18.286c3.553 0 7.106 1.672 7.106 5.016v47.336c0 17.974-11.39 24.661-25.079 24.661-14.943 0-26.229-7.942-26.229-21.84 0-6.27 2.612-7.732 8.256-7.732 4.18 0 7.731 1.046 8.045 4.912.314 4.076.836 10.45 9.196 10.45 6.06 0 9.51-3.345 9.51-10.45v-38.14h-9.091v-.002zm41.793-6.373c-.105-.419-.209-.836-.209-1.15 0-3.866 5.956-6.688 10.45-6.688 2.612 0 4.702.835 5.329 3.03l14.63 53.607 14.524-53.607c.627-2.194 2.718-3.03 5.33-3.03 4.493 0 10.449 2.82 10.449 6.688 0 .313-.104.732-.209 1.15l-19.436 63.742c-1.15 3.658-5.852 5.434-10.658 5.434-4.806 0-9.51-1.777-10.658-5.434l-19.542-63.742z" stroke="null" fill="#F9EED7"/></svg>