<svg xmlns="http://www.w3.org/2000/svg" width="80" height="80"><circle fill="#3B3C45" cx="40" cy="40" r="40"/><linearGradient id="a" gradientUnits="userSpaceOnUse" x1="26.754" y1="68.663" x2="53.442" y2="22.438"><stop offset="0" stop-color="#616DB3"/><stop offset="1" stop-color="#21ABC7"/></linearGradient><path fill="url(#a)" d="M49.529 57.263c-3.343-2.919-5.397-4.725-6.529-9.597 2.961-3.622 4.319-8.495 3.27-13.429a15.958 15.958 0 0 0-2.155-5.272l.001-.001L33.214 11.67a3.99 3.99 0 0 0-.653-1.037l-.004-.007-.002.001a3.997 3.997 0 0 0-3.844-1.283l-1.957.416-1.956.416a3.997 3.997 0 0 0-2.99 2.735h-.002l-.001.008c-.119.387-.18.795-.175 1.213l-2.925 20.234h.002a15.958 15.958 0 0 0 .176 5.693c1.051 4.943 4.284 8.849 8.474 10.951 2.282 10.107 7.683 14.842 11.648 18.305 3.445 3.008 5.524 4.824 6.633 10.041l.045.236a39.745 39.745 0 0 0 15.155-5.443c-2.449-9.147-7.533-13.588-11.309-16.886z"/><path fill="#616DB3" d="M49.549 78.523c-1.109-5.217-3.188-7.032-6.633-10.041-4.026-3.516-9.54-8.332-11.758-18.765l-3.913.832c2.218 10.433 7.732 15.249 11.758 18.765 3.445 3.008 5.524 4.824 6.633 10.041l.045.236a39.684 39.684 0 0 0 3.926-.761l-.058-.307zm-11.552-26.79s-5.309 1.684-10.597-.699c-4.212-2.096-7.465-6.014-8.519-10.975a15.981 15.981 0 0 1-.176-5.693h-.002l2.925-20.234a3.992 3.992 0 0 1 .175-1.213l.001-.008h.002a3.995 3.995 0 0 1 2.99-2.735l1.956-.416.53-.113a3.997 3.997 0 0 0-2.99 2.735h-.002l-.001.008c-.119.387-.18.795-.175 1.213l-.969 19.818h.002a15.958 15.958 0 0 0 .176 5.693c1.53 7.193 7.675 12.193 14.674 12.619z"/><linearGradient id="b" gradientUnits="userSpaceOnUse" x1="47.721" y1="13.615" x2="47.721" y2="6.615" gradientTransform="rotate(-12.04 164.881 60.079)"><stop offset="0" stop-color="#3B3C45"/><stop offset="1" stop-color="#5C5A69"/></linearGradient><circle fill="url(#b)" cx="39.912" cy="35.589" r="3.5"/><path fill="#3B3C45" d="M41.184 32.332c.471.464.818 1.064.965 1.759a3.5 3.5 0 0 1-4.696 3.985 3.494 3.494 0 0 0 3.186.937 3.5 3.5 0 0 0 .545-6.681z"/><circle fill="#5C5A69" cx="38.726" cy="34.819" r="1"/><linearGradient id="c" gradientUnits="userSpaceOnUse" x1="32.721" y1="13.615" x2="32.721" y2="6.615" gradientTransform="rotate(-12.04 164.881 60.079)"><stop offset="0" stop-color="#3B3C45"/><stop offset="1" stop-color="#5C5A69"/></linearGradient><circle fill="url(#c)" cx="25.24" cy="38.708" r="3.5"/><path fill="#3B3C45" d="M26.512 35.45c.471.464.818 1.064.965 1.759a3.5 3.5 0 0 1-4.696 3.985 3.494 3.494 0 0 0 3.186.937 3.5 3.5 0 0 0 .545-6.681z"/><circle fill="#5C5A69" cx="24.054" cy="37.937" r="1"/><path fill="#3B3C45" d="M29.126 11.301a2 2 0 0 1 2.372 1.54 2 2 0 0 1-2.372-1.54zm-3.912.831a2 2 0 0 0-1.54 2.372 2 2 0 0 0 1.54-2.372z"/><linearGradient id="d" gradientUnits="userSpaceOnUse" x1="40.317" y1="79.591" x2="40.317" y2="9.256"><stop offset="0" stop-color="#F79D2A"/><stop offset="1" stop-color="#FFCD2E"/></linearGradient><path fill="url(#d)" d="M61.296 34.366L58.37 14.132a3.992 3.992 0 0 0-.175-1.213l-.001-.008h-.002a3.995 3.995 0 0 0-2.99-2.735l-1.956-.416-1.956-.416a3.998 3.998 0 0 0-3.844 1.283l-.002-.001-.004.007a3.948 3.948 0 0 0-.653 1.037L35.884 28.964l.001.001a15.967 15.967 0 0 0-2.155 5.272c-1.049 4.934.31 9.807 3.27 13.429-1.132 4.872-3.186 6.677-6.529 9.597-3.776 3.298-8.861 7.739-11.307 16.885a39.745 39.745 0 0 0 15.155 5.443l.045-.236c1.109-5.217 3.188-7.032 6.633-10.041 3.965-3.463 9.366-8.197 11.648-18.305 4.19-2.102 7.423-6.008 8.474-10.951.41-1.929.451-3.851.176-5.693l.001.001z"/><path fill="#616DB3" d="M42.372 72.494c3.123-3.132 6.353-7.455 8.084-14.416l-.927-.815-1.038-.913-1.649-.35c-1.398 6.578-4.107 10.921-6.927 14.115.926.819 1.744 1.577 2.457 2.379z"/><path fill="#F79D2A" d="M37.084 68.483c-3.445 3.008-5.524 4.824-6.633 10.041l-.059.307c1.285.317 2.595.571 3.926.761l.045-.236c1.109-5.217 3.188-7.032 6.633-10.041 4.026-3.516 9.54-8.332 11.758-18.765l-3.913-.832c-2.217 10.433-7.731 15.249-11.757 18.765zm4.919-16.75s5.309 1.684 10.597-.699c4.212-2.096 7.465-6.014 8.519-10.975.41-1.929.451-3.851.176-5.693h.002L58.37 14.132a3.992 3.992 0 0 0-.175-1.213l-.001-.008h-.002a3.995 3.995 0 0 0-2.99-2.735l-1.956-.416-.53-.113a3.997 3.997 0 0 1 2.99 2.735h.002l.001.008c.119.387.18.795.175 1.213l.969 19.818h-.002a15.958 15.958 0 0 1-.176 5.693c-1.528 7.193-7.673 12.193-14.672 12.619z"/><linearGradient id="e" gradientUnits="userSpaceOnUse" x1="52.961" y1="67.672" x2="52.961" y2="60.672" gradientTransform="rotate(12.04 174.951 59.856)"><stop offset="0" stop-color="#3B3C45"/><stop offset="1" stop-color="#5C5A69"/></linearGradient><circle fill="url(#e)" cx="54.76" cy="38.708" r="3.5"/><path fill="#3B3C45" d="M57.247 36.249a3.5 3.5 0 0 1-3.985 4.696 3.483 3.483 0 0 1-1.759-.965 3.494 3.494 0 0 0 2.529 2.151 3.5 3.5 0 0 0 3.215-5.882z"/><circle fill="#5C5A69" cx="53.99" cy="37.521" r="1"/><linearGradient id="f" gradientUnits="userSpaceOnUse" x1="37.961" y1="67.672" x2="37.961" y2="60.672" gradientTransform="rotate(12.04 174.951 59.856)"><stop offset="0" stop-color="#3B3C45"/><stop offset="1" stop-color="#5C5A69"/></linearGradient><circle fill="url(#f)" cx="40.088" cy="35.589" r="3.5"/><path fill="#3B3C45" d="M42.575 33.131a3.5 3.5 0 0 1-3.985 4.696 3.483 3.483 0 0 1-1.759-.965 3.494 3.494 0 0 0 2.529 2.151 3.5 3.5 0 0 0 3.215-5.882z"/><circle fill="#5C5A69" cx="39.318" cy="34.403" r="1"/><path fill="#3B3C45" d="M54.786 12.132a2 2 0 0 1 1.54 2.372 2 2 0 0 1-1.54-2.372zm-3.912-.831a2 2 0 0 0-2.372 1.54 2 2 0 0 0 2.372-1.54z"/><path fill="#F79D2A" d="M49.608 51.083l-6.378.527 5.145 6.557z"/></svg>