<?xml version="1.0" encoding="iso-8859-1"?>
<!-- Generator: Adobe Illustrator 19.0.0, SVG Export Plug-In . SVG Version: 6.00 Build 0)  -->
<svg version="1.1" id="Capa_1" xmlns="http://www.w3.org/2000/svg" xmlns:xlink="http://www.w3.org/1999/xlink" x="0px" y="0px"
	 viewBox="0 0 496.485 496.485" style="enable-background:new 0 0 496.485 496.485;" xml:space="preserve">
<circle style="fill:#4FBF9F;" cx="247.467" cy="175.321" r="175.321"/>
<path style="fill:#FFFFFF;" d="M470.885,489.503V229.624c-34.133-2.327-63.612,5.43-89.988,39.564
	c-7.758,10.085-12.412,23.273-12.412,36.461l-42.667,72.921h33.358v49.648c0,15.515,12.412,27.927,27.927,27.927h36.461v34.133
	h47.321V489.503z"/>
<path style="fill:#193651;" d="M470.885,496.485h-48.097c-3.879,0-6.982-3.103-6.982-6.982v-26.376h-29.479
	c-19.394,0-34.909-15.515-34.909-34.909v-42.667h-25.6c-2.327,0-4.655-1.552-6.206-3.879c-1.552-2.327-1.552-4.655,0-6.982
	l41.891-71.37c0.776-13.964,5.43-27.151,13.964-38.788c22.497-29.479,48.873-42.667,85.333-42.667c3.103,0,6.982,0,10.085,0
	c3.879,0,6.982,3.103,6.982,6.982v259.879C477.867,493.382,474.764,496.485,470.885,496.485z M430.545,481.745h33.358V236.606
	c-33.358-0.776-56.63,10.085-76.8,37.236c-6.982,9.309-10.861,20.17-10.861,31.806c0,1.552,0,2.327-0.776,3.879l-36.461,62.836
	h20.945c3.879,0,6.982,3.103,6.982,6.982v49.648c0,11.636,9.309,20.17,20.945,20.17h36.461c3.879,0,6.982,3.103,6.982,6.982v25.6
	H430.545z"/>
<path style="fill:#FFFFFF;" d="M25.6,489.503V229.624c34.133-2.327,63.612,5.43,89.988,39.564
	C123.345,279.273,128,292.461,128,305.648l43.442,73.697h-33.358v49.648c0,15.515-12.412,27.927-27.927,27.927H73.697v34.133H25.6
	V489.503z"/>
<path style="fill:#193651;" d="M73.697,496.485H25.6c-3.879,0-6.982-3.103-6.982-6.982V229.624c0-3.879,3.103-6.982,6.982-6.982
	c3.103,0,6.982,0,10.085,0c36.461,0,62.836,13.188,85.333,42.667c8.533,10.861,13.188,24.824,13.964,38.788l41.891,71.37
	c1.552,2.327,1.552,4.655,0,6.982c-1.552,2.327-3.879,3.879-6.206,3.879h-25.6v42.667c0,19.394-15.515,34.909-34.909,34.909H80.679
	v26.376C80.679,493.382,77.576,496.485,73.697,496.485z M32.582,481.745h33.358V455.37c0-3.879,3.103-6.982,6.982-6.982h36.461
	c11.636,0,20.945-9.309,20.945-20.17V378.57c0-3.879,3.103-6.982,6.982-6.982h20.945l-36.461-62.836
	c-0.776-0.776-0.776-2.327-0.776-3.879c0-11.636-3.879-22.497-10.861-31.806c-20.945-26.376-43.442-37.236-76.8-37.236v245.915
	H32.582z"/>
<path style="fill:#E1E6E9;" d="M358.4,380.897v46.545c0,15.515,12.412,27.927,27.927,27.927h36.461v34.133h48.097V409.6"/>
<path style="fill:#193651;" d="M470.885,496.485h-48.097c-3.879,0-6.982-3.103-6.982-6.982v-26.376h-29.479
	c-19.394,0-34.909-15.515-34.909-34.909v-46.545c0-3.879,3.103-6.982,6.982-6.982c3.879,0,6.982,3.103,6.982,6.982v46.545
	c0,11.636,9.309,20.17,20.945,20.17h36.461c3.879,0,6.982,3.103,6.982,6.982v26.376h33.358V409.6c0-3.879,3.103-6.982,6.982-6.982
	c3.879,0,6.982,3.103,6.982,6.982v79.127C477.867,493.382,474.764,496.485,470.885,496.485z"/>
<path style="fill:#E1E6E9;" d="M25.6,409.6v79.127h48.097v-34.133h36.461c15.515,0,27.927-12.412,27.927-27.927v-46.545"/>
<g>
	<path style="fill:#193651;" d="M73.697,496.485H25.6c-3.879,0-6.982-3.103-6.982-6.982V409.6c0-3.879,3.103-6.982,6.982-6.982
		s6.982,3.103,6.982,6.982v72.145h33.358V455.37c0-3.879,3.103-6.982,6.982-6.982h36.461c11.636,0,20.945-9.309,20.945-20.17
		v-46.545c0-3.879,3.103-6.982,6.982-6.982c3.879,0,6.982,3.103,6.982,6.982v46.545c0,19.394-15.515,34.909-34.909,34.909H79.903
		v26.376C80.679,493.382,77.576,496.485,73.697,496.485z"/>
	<rect x="114.812" y="162.909" style="fill:#193651;" width="14.739" height="14.739"/>
	<rect x="367.709" y="162.909" style="fill:#193651;" width="14.739" height="14.739"/>
</g>
<rect x="151.526" y="73.581" transform="matrix(-0.7071 0.7071 -0.7071 -0.7071 328.4916 25.8349)" style="fill:#193651;" width="14.739" height="14.739"/>
<g>
	
		<rect x="330.394" y="251.751" transform="matrix(-0.7071 0.7071 -0.7071 -0.7071 759.8254 203.5116)" style="fill:#193651;" width="14.739" height="14.739"/>
	<rect x="240.485" y="36.461" style="fill:#193651;" width="14.739" height="14.739"/>
</g>
<rect x="329.724" y="72.957" transform="matrix(-0.7072 0.707 -0.707 -0.7072 632.28 -101.1939)" style="fill:#193651;" width="14.739" height="14.739"/>
<rect x="151.559" y="251.829" transform="matrix(-0.7071 0.7071 -0.7071 -0.7071 454.5891 330.0999)" style="fill:#193651;" width="14.739" height="14.739"/>
<path style="fill:#FFFFFF;" d="M345.212,172.218c0-55.079-45.77-99.297-101.624-96.97c-47.321,2.327-86.885,39.564-91.539,86.885
	c-3.879,36.461,13.188,69.818,41.115,88.436c7.758,5.43,12.412,13.964,12.412,23.273v65.164h86.109v-65.164
	c0-9.309,3.879-17.842,11.636-23.273C328.145,234.279,345.212,205.576,345.212,172.218z"/>
<path style="fill:#193651;" d="M242.812,68.267c-51.2,2.327-93.091,42.667-98.521,93.867c-3.879,37.236,13.188,73.697,44.218,95.418
	c5.43,3.879,9.309,10.861,9.309,17.842v65.164c0,3.879,3.103,6.982,6.982,6.982h86.109c3.879,0,6.982-3.103,6.982-6.982v-65.164
	c0-6.982,3.103-13.964,8.533-17.067c27.927-19.394,44.994-51.2,44.994-85.333C352.194,113.261,302.545,65.939,242.812,68.267z
	 M299.442,245.915c-9.309,6.206-14.739,17.067-14.739,29.479v58.182h-72.145v-58.182c0-11.636-5.43-22.497-15.515-29.479
	c-27.152-18.618-41.115-49.648-38.012-82.23c3.879-43.442,40.339-78.352,84.558-80.679c51.2-2.327,93.867,38.788,93.867,89.212
	C337.455,201.697,323.491,228.848,299.442,245.915z"/>
<path style="fill:#FDBF5E;" d="M248.242,100.073c-1.552,0-2.327,0-3.879,0c-34.909,1.552-65.164,30.255-68.267,65.164
	c-2.327,26.376,9.309,51.2,31.03,66.715c13.964,10.085,22.497,26.376,22.497,43.442v14.739h38.012v-14.739
	c0-17.067,8.533-33.358,22.497-43.442c19.394-13.964,31.03-35.685,31.03-59.733C321.164,132.655,288.582,100.073,248.242,100.073z"
	/>
<path style="fill:#FFFFFF;" d="M225.745,340.558v6.206c0,12.412,10.085,22.497,22.497,22.497s22.497-10.085,22.497-22.497v-6.206
	H225.745z"/>
<g>
	<path style="fill:#193651;" d="M270.739,333.576h-44.994c-3.879,0-6.982,3.103-6.982,6.982v6.206
		c0,16.291,13.188,29.479,29.479,29.479s29.479-13.188,29.479-29.479v-6.206C277.721,336.679,274.618,333.576,270.739,333.576z
		 M248.242,362.279c-7.758,0-14.739-6.206-15.515-13.964h31.03C262.982,355.297,256,362.279,248.242,362.279z"/>
	<path style="fill:#193651;" d="M304.873,297.115H191.612c-3.879,0-6.982-3.103-6.982-6.982s3.103-6.982,6.982-6.982h112.485
		c3.879,0,6.982,3.103,6.982,6.982C311.855,294.012,308.751,297.115,304.873,297.115z"/>
	<path style="fill:#193651;" d="M304.873,322.715H191.612c-3.879,0-6.982-3.103-6.982-6.982c0-3.879,3.103-6.982,6.982-6.982
		h112.485c3.879,0,6.982,3.103,6.982,6.982C311.855,319.612,308.751,322.715,304.873,322.715z"/>
	<path style="fill:#193651;" d="M248.242,297.115c-3.879,0-6.982-3.103-6.982-6.982v-81.455c0-3.879,3.103-6.982,6.982-6.982
		c3.879,0,6.982,3.103,6.982,6.982v80.679C255.224,294.012,252.121,297.115,248.242,297.115z"/>
	<path style="fill:#193651;" d="M248.242,216.436L248.242,216.436c-2.327,0-4.655-0.776-6.206-3.103l-27.152-38.788
		c-2.327-3.103-1.552-7.758,1.552-10.085c3.103-2.327,7.758-1.552,10.085,1.552l20.945,30.255l20.945-30.255
		c2.327-3.103,6.982-3.879,10.085-1.552c3.103,2.327,3.879,6.982,1.552,10.085l-27.152,38.788
		C252.897,214.885,250.57,216.436,248.242,216.436z"/>
</g>
<g>
</g>
<g>
</g>
<g>
</g>
<g>
</g>
<g>
</g>
<g>
</g>
<g>
</g>
<g>
</g>
<g>
</g>
<g>
</g>
<g>
</g>
<g>
</g>
<g>
</g>
<g>
</g>
<g>
</g>
</svg>
