<svg xmlns="http://www.w3.org/2000/svg" viewBox="0 0 496.485 496.485"><circle cx="247.467" cy="175.321" r="175.321" fill="#4fbf9f"/><path d="M470.885 489.503V229.624c-34.133-2.327-63.612 5.43-89.988 39.564-7.758 10.085-12.412 23.273-12.412 36.461l-42.667 72.921h33.358v49.648a27.81 27.81 0 0 0 27.927 27.927h36.461v34.133h47.321v-.775z" fill="#fff"/><path d="M470.885 496.485h-48.097a6.953 6.953 0 0 1-6.982-6.982v-26.376h-29.479c-19.394 0-34.909-15.515-34.909-34.909v-42.667h-25.6c-2.327 0-4.655-1.552-6.206-3.879-1.552-2.327-1.552-4.655 0-6.982l41.891-71.37c.776-13.964 5.43-27.151 13.964-38.788 22.497-29.479 48.873-42.667 85.333-42.667h10.085a6.953 6.953 0 0 1 6.982 6.982v259.879c0 4.656-3.103 7.759-6.982 7.759zm-40.34-14.74h33.358V236.606c-33.358-.776-56.63 10.085-76.8 37.236-6.982 9.309-10.861 20.17-10.861 31.806 0 1.552 0 2.327-.776 3.879l-36.461 62.836h20.945a6.953 6.953 0 0 1 6.982 6.982v49.648c0 11.636 9.309 20.17 20.945 20.17h36.461a6.953 6.953 0 0 1 6.982 6.982v25.6h-.775z" fill="#193651"/><path d="M25.6 489.503V229.624c34.133-2.327 63.612 5.43 89.988 39.564 7.757 10.085 12.412 23.273 12.412 36.46l43.442 73.697h-33.358v49.648a27.81 27.81 0 0 1-27.927 27.927h-36.46v34.133H25.6v-1.55z" fill="#fff"/><path d="M73.697 496.485H25.6a6.953 6.953 0 0 1-6.982-6.982V229.624a6.953 6.953 0 0 1 6.982-6.982h10.085c36.461 0 62.836 13.188 85.333 42.667 8.533 10.861 13.188 24.824 13.964 38.788l41.891 71.37c1.552 2.327 1.552 4.655 0 6.982s-3.879 3.879-6.206 3.879h-25.6v42.667c0 19.394-15.515 34.909-34.909 34.909H80.679v26.376c0 3.102-3.103 6.205-6.982 6.205zm-41.115-14.74H65.94V455.37a6.953 6.953 0 0 1 6.982-6.982h36.461c11.636 0 20.945-9.309 20.945-20.17V378.57a6.953 6.953 0 0 1 6.982-6.982h20.945l-36.461-62.836c-.776-.776-.776-2.327-.776-3.879 0-11.636-3.879-22.497-10.861-31.806-20.945-26.376-43.442-37.236-76.8-37.236v245.915h-.775z" fill="#193651"/><path d="M358.4 380.897v46.545a27.81 27.81 0 0 0 27.927 27.927h36.461v34.133h48.097V409.6" fill="#e1e6e9"/><path d="M470.885 496.485h-48.097a6.953 6.953 0 0 1-6.982-6.982v-26.376h-29.479c-19.394 0-34.909-15.515-34.909-34.909v-46.545a6.953 6.953 0 0 1 6.982-6.982 6.953 6.953 0 0 1 6.982 6.982v46.545c0 11.636 9.309 20.17 20.945 20.17h36.461a6.953 6.953 0 0 1 6.982 6.982v26.376h33.358V409.6a6.953 6.953 0 0 1 6.982-6.982 6.953 6.953 0 0 1 6.982 6.982v79.127c.775 4.655-2.328 7.758-6.207 7.758z" fill="#193651"/><path d="M25.6 409.6v79.127h48.097v-34.133h36.461a27.81 27.81 0 0 0 27.927-27.927v-46.545" fill="#e1e6e9"/><path d="M73.697 496.485H25.6a6.953 6.953 0 0 1-6.982-6.982V409.6c0-3.879 3.103-6.982 6.982-6.982s6.982 3.103 6.982 6.982v72.145H65.94V455.37a6.953 6.953 0 0 1 6.982-6.982h36.461c11.636 0 20.945-9.309 20.945-20.17v-46.545a6.953 6.953 0 0 1 6.982-6.982 6.953 6.953 0 0 1 6.982 6.982v46.545c0 19.394-15.515 34.909-34.909 34.909h-29.48v26.376c.776 3.879-2.327 6.982-6.206 6.982zm41.115-333.576h14.739v14.739h-14.739zm252.897 0h14.739v14.739h-14.739zM169.318 80.95l-10.422 10.422-10.421-10.422 10.421-10.422zM348.19 259.12l-10.421 10.422-10.422-10.422 10.422-10.422zM240.485 36.461h14.739V51.2h-14.739zM347.519 80.326l-10.424 10.42-10.42-10.423 10.423-10.42zM169.353 259.199l-10.422 10.422-10.421-10.422 10.421-10.422z" fill="#193651"/><path d="M345.212 172.218c0-55.079-45.77-99.297-101.624-96.97-47.321 2.327-86.885 39.564-91.539 86.885-3.879 36.461 13.188 69.818 41.115 88.436 7.758 5.43 12.412 13.964 12.412 23.273v65.164h86.109v-65.164c0-9.309 3.879-17.842 11.636-23.273 24.824-16.29 41.891-44.993 41.891-78.351z" fill="#fff"/><path d="M242.812 68.267c-51.2 2.327-93.091 42.667-98.521 93.867-3.879 37.236 13.188 73.697 44.218 95.418 5.43 3.879 9.309 10.861 9.309 17.842v65.164a6.953 6.953 0 0 0 6.982 6.982h86.109a6.953 6.953 0 0 0 6.982-6.982v-65.164c0-6.982 3.103-13.964 8.533-17.067 27.927-19.394 44.994-51.2 44.994-85.333.776-59.733-48.873-107.055-108.606-104.727zm56.63 177.648c-9.309 6.206-14.739 17.067-14.739 29.479v58.182h-72.145v-58.182c0-11.636-5.43-22.497-15.515-29.479-27.152-18.618-41.115-49.648-38.012-82.23 3.879-43.442 40.339-78.352 84.558-80.679 51.2-2.327 93.867 38.788 93.867 89.212-.001 29.479-13.965 56.63-38.014 73.697z" fill="#193651"/><path d="M248.242 100.073h-3.879c-34.909 1.552-65.164 30.255-68.267 65.164-2.327 26.376 9.309 51.2 31.03 66.715 13.964 10.085 22.497 26.376 22.497 43.442v14.739h38.012v-14.739c0-17.067 8.533-33.358 22.497-43.442 19.394-13.964 31.03-35.685 31.03-59.733.002-39.564-32.58-72.146-72.92-72.146z" fill="#fdbf5e"/><path d="M225.745 340.558v6.206c0 12.412 10.085 22.497 22.497 22.497s22.497-10.085 22.497-22.497v-6.206h-44.994z" fill="#fff"/><g fill="#193651"><path d="M270.739 333.576h-44.994a6.953 6.953 0 0 0-6.982 6.982v6.206c0 16.291 13.188 29.479 29.479 29.479s29.479-13.188 29.479-29.479v-6.206a6.953 6.953 0 0 0-6.982-6.982zm-22.497 28.703c-7.758 0-14.739-6.206-15.515-13.964h31.03c-.775 6.982-7.757 13.964-15.515 13.964zm56.631-65.164H191.612c-3.879 0-6.982-3.103-6.982-6.982s3.103-6.982 6.982-6.982h112.485a6.953 6.953 0 0 1 6.982 6.982c.776 3.879-2.328 6.982-6.206 6.982zm0 25.6H191.612a6.953 6.953 0 0 1-6.982-6.982 6.953 6.953 0 0 1 6.982-6.982h112.485a6.953 6.953 0 0 1 6.982 6.982c.776 3.879-2.328 6.982-6.206 6.982z"/><path d="M248.242 297.115a6.953 6.953 0 0 1-6.982-6.982v-81.455a6.953 6.953 0 0 1 6.982-6.982 6.953 6.953 0 0 1 6.982 6.982v80.679c0 4.655-3.103 7.758-6.982 7.758z"/><path d="M248.242 216.436c-2.327 0-4.655-.776-6.206-3.103l-27.152-38.788c-2.327-3.103-1.552-7.758 1.552-10.085 3.103-2.327 7.758-1.552 10.085 1.552l20.945 30.255 20.945-30.255c2.327-3.103 6.982-3.879 10.085-1.552 3.103 2.327 3.879 6.982 1.552 10.085l-27.152 38.788c.001 1.552-2.326 3.103-4.654 3.103z"/></g></svg>