<svg xmlns="http://www.w3.org/2000/svg" viewBox="0 0 512 512"><circle cx="256" cy="256" r="256" fill="#3b3c45"/><path d="M465.288 456.12l-.036 7.568c-.292 5.568-4.912 10.368-11.024 10.368H57.772c-6.112 0-10.732-4.804-11.024-10.368l-.036-7.568h1.784l26.852-77.356c1.528-4.44 5.712-7.388 10.404-7.388h340.492c4.692 0 8.876 2.948 10.404 7.388L463.5 456.12h1.788z" fill="#e8e7e8"/><path d="M464.656 452.884l-28.004-80.648a11.024 11.024 0 0 0-10.416-7.408H85.764a11.024 11.024 0 0 0-10.416 7.408l-28.004 80.648c-2.488 7.164 2.832 14.644 10.416 14.644h396.476c7.588 0 12.908-7.48 10.42-14.644z" fill="#fdfeff"/><path d="M423.052 123.96H88.58c-6.088 0-11.028 4.936-11.028 11.028V353.8c0 6.088 4.936 11.028 11.028 11.028h334.472c6.088 0 11.028-4.936 11.028-11.028V134.984c0-6.088-4.94-11.024-11.028-11.024z" fill="#656d7a"/><path fill="#70b1e1" d="M96.84 162.804h317.92v182.728H96.84z"/><path fill="#d2d2d4" d="M96.84 143.256h317.92V162.8H96.84z"/><g fill="#fdfeff"><path d="M151.82 147.844h207.392v10.368H151.82zM367.6 147.844h13.652v10.368H367.6zM389.76 147.844h13.652v10.368H389.76z"/></g><g fill="#d2d2d4"><path d="M434.08 422.72H75.324l12.728-43.936h333.296zM304.544 453.304h-97.088l4.28-21.768h88.528z"/></g><g fill="#fdfeff"><path d="M405.36 288.44l-1.456-9.28h-15.972l-1.456 9.28a41.8 41.8 0 0 0-13.172 5.496l-7.604-5.568-11.316 11.316 5.568 7.568a42.114 42.114 0 0 0-5.496 13.172l-9.24 1.456v16.008l9.24 1.456a40.433 40.433 0 0 0 1.928 6.184h18.048a26.27 26.27 0 0 1-5.132-15.644c0-14.7 11.9-26.596 26.596-26.596 7.388 0 14.08 3.02 18.884 7.86v-19.32c-2.944-1.496-6.108-2.624-9.42-3.388zM386.448 258.136V245.3l-7.456-1.168a33.546 33.546 0 0 0-4.376-10.564l4.44-6.092-9.072-9.076-6.092 4.44a33.484 33.484 0 0 0-10.564-4.376l-1.168-7.44h-12.836l-1.168 7.44a33.209 33.209 0 0 0-10.564 4.392L321.5 218.4l-9.076 9.076 4.456 6.092a33.3 33.3 0 0 0-4.392 10.564l-7.44 1.168v12.836l7.44 1.168a33.026 33.026 0 0 0 4.376 10.564l-4.44 6.092 9.076 9.076 6.092-4.44c3.208 2.024 6.756 3.532 10.564 4.376l1.168 7.456h12.836l1.168-7.456a33.263 33.263 0 0 0 10.58-4.376l6.076 4.44 9.076-9.076-4.44-6.092a33.116 33.116 0 0 0 4.376-10.564l7.452-1.168zm-40.708 14.94c-11.796 0-21.36-9.56-21.36-21.36 0-11.796 9.56-21.356 21.36-21.356 11.796 0 21.356 9.56 21.356 21.356.004 11.8-9.556 21.36-21.356 21.36z"/></g><circle cx="107.164" cy="153.04" r="5.184" fill="#3b3c45"/><circle cx="121.816" cy="153.04" r="5.184" fill="#f5ea07"/><circle cx="136.48" cy="153.04" r="5.184" fill="#70b1e1"/><path fill="#fdfeff" d="M125.32 177.2h4.872v153.916h-4.872z"/><path fill="#e8bb20" d="M137.788 195.288h25.752v4.872h-25.752z"/><path fill="#fdfeff" d="M144.16 206.576h40.712v4.872H144.16z"/><path fill="#4d5ba5" d="M217.84 206.576h40.712v4.872H217.84z"/><path fill="#f5ea07" d="M190.22 206.576h22.272v4.872H190.22z"/><path fill="#4d5ba5" d="M144.16 217.88h72.8v4.872h-72.8z"/><path fill="#e8bb20" d="M246.08 217.88h30.416v4.872H246.08z"/><path fill="#fdfeff" d="M144.16 229.16h26.216v4.872H144.16z"/><path fill="#f5ea07" d="M174.964 229.16h54.968v4.872h-54.968z"/><g fill="#e8bb20"><path d="M206 240.44h26.216v4.872H206zM137.4 263.016h28.756v4.872H137.4z"/></g><path fill="#4d5ba5" d="M144.16 274.32h37.408v4.872H144.16z"/><path fill="#fdfeff" d="M144.16 285.6h36.4v4.872h-36.4z"/><path fill="#f5ea07" d="M186.068 285.6h60.04v4.872h-60.04z"/><path fill="#4d5ba5" d="M251.864 285.6h10.776v4.872h-10.776z"/><path fill="#f5ea07" d="M144.16 296.88h18.548v4.872H144.16z"/><path fill="#e8bb20" d="M138.216 308.16h18.548v4.872h-18.548z"/><path fill="#4d5ba5" d="M166.176 296.88h85.012v4.872h-85.012z"/><g fill="#fdfeff"><path d="M280.08 274.32h21.796v4.872H280.08zM187.312 274.32h87.672v4.872h-87.672zM238.2 240.44h57.04v4.872H238.2zM144.16 240.44h57.04v4.872h-57.04z"/></g><path fill="#f5ea07" d="M144.16 251.728h57.04v4.872h-57.04z"/><path fill="#4d5ba5" d="M204.28 251.728h50.74v4.872h-50.74z"/><g fill="#fdfeff"><path d="M222.424 217.88h18.62v4.872h-18.62zM168.88 195.288h12.18v4.872h-12.18zM112.4 183.128h5.964v5.964H112.4zM112.4 195.5h5.964v5.964H112.4zM112.4 207.876h5.964v5.964H112.4zM112.4 220.24h5.964v5.964H112.4zM112.4 232.64h5.964v5.964H112.4zM112.4 245h5.964v5.964H112.4zM112.4 257.36h5.964v5.964H112.4zM112.4 269.76h5.964v5.964H112.4zM112.4 282.12h5.964v5.964H112.4zM112.4 294.48h5.964v5.964H112.4zM112.4 306.88h5.964v5.964H112.4zM112.4 319.24h5.964v5.964H112.4z"/></g></svg>