<svg xmlns="http://www.w3.org/2000/svg" viewBox="0 0 505 505"><circle cx="252.5" cy="252.5" r="252.5" fill="#324a5e"/><path fill="#fff" d="M325.6 86.1v53.6h53.5v279.2H125.9V86.1z"/><path fill="#e6e9ee" d="M325.6 86.1l53.5 53.6h-53.5z"/><path d="M203.3 240h-47.8v-47.8h47.8V240zm-43-4.7h38.4v-38.4h-38.4v38.4z" fill="#54c0eb"/><path fill="#ff7058" d="M182.7 230.5l-17.6-17.6 8.3-8.3 9.3 9.3 25.7-25.8 8.3 8.3z"/><path d="M203.3 311.5h-47.8v-47.8h47.8v47.8zm-43-4.7h38.4v-38.3h-38.4v38.3z" fill="#54c0eb"/><path fill="#ff7058" d="M182.7 302l-17.6-17.6 8.3-8.3 9.3 9.3 25.7-25.8 8.3 8.3z"/><path d="M203.3 383h-47.8v-47.8h47.8V383zm-43-4.7h38.4v-38.4h-38.4v38.4z" fill="#54c0eb"/><path fill="#ff7058" d="M182.7 373.5l-17.6-17.6 8.3-8.3 9.3 9.3 25.7-25.8 8.3 8.3z"/><path d="M229.9 205.9h111.4v10.5H229.9zm0 23.6h55.5V240h-55.5zm0 47.9h111.4v10.5H229.9zm0 23.6h55.5v10.5h-55.5zm0 47.9h111.4v10.5H229.9zm0 23.6h55.5V383h-55.5z" fill="#e6e9ee"/></svg>