<svg xmlns="http://www.w3.org/2000/svg" viewBox="0 0 60 60"><path fill="#ecf0f1" d="M3 6.5h54v42H3z"/><path fill="#556080" d="M1 .5h58v6H1z"/><path fill="#71c285" d="M12 24.5h6v16h-6zm12 4h6v12h-6z"/><path fill="#26b99a" d="M30 22.5h6v18h-6z"/><path fill="#71c285" d="M36 15.5h6v25h-6z"/><path fill="#26b99a" d="M42 18.5h6v22h-6z"/><path fill="#f3d55b" d="M18 18.5h6v22h-6z"/><path d="M30 52.5a1 1 0 0 1-1-1v-3a1 1 0 1 1 2 0v3a1 1 0 0 1-1 1z" fill="#556080"/><path d="M30 59.5c-2.206 0-4-1.794-4-4s1.794-4 4-4 4 1.794 4 4-1.794 4-4 4zm0-6c-1.103 0-2 .897-2 2s.897 2 2 2 2-.897 2-2-.897-2-2-2zm29-4H1a1 1 0 1 1 0-2h58a1 1 0 1 1 0 2z" fill="#556080"/><path d="M52 41.5H8a1 1 0 1 1 0-2h44a1 1 0 1 1 0 2z" fill="#fff"/></svg>