<svg xmlns="http://www.w3.org/2000/svg" viewBox="0 0 511.999 511.999"><circle cx="256" cy="255.86" r="246" fill="#72d8ff"/><path d="M347.998 223.999h-60v-60c0-17.673-14.327-32-32-32-17.673 0-32 14.327-32 32v60h-60c-17.673 0-32 14.327-32 32 0 17.673 14.327 32 32 32h60v60c0 17.673 14.327 32 32 32 17.673 0 32-14.327 32-32v-60h60c17.673 0 32-14.327 32-32 0-17.673-14.327-32-32-32z" fill="#fff"/><path d="M255.998 511.999c-68.38 0-132.667-26.629-181.02-74.98C31.794 393.834 5.435 336.56.757 275.75c-4.627-60.148 12.099-120.113 47.096-168.851 3.222-4.485 9.469-5.511 13.956-2.29 4.486 3.222 5.511 9.47 2.29 13.956C-3.54 212.757 6.983 340.738 89.121 422.876c44.574 44.575 103.839 69.123 166.877 69.123s122.303-24.548 166.877-69.123c44.575-44.574 69.123-103.839 69.123-166.877S467.45 133.696 422.875 89.122C341.121 7.369 213.513-3.423 119.448 63.466c-4.501 3.202-10.744 2.146-13.944-2.354-3.201-4.501-2.146-10.744 2.354-13.944C156.572 12.525 216.403-3.948 276.311.802c60.594 4.795 117.667 31.139 160.706 74.178 48.352 48.353 74.98 112.64 74.98 181.02s-26.629 132.667-74.98 181.02c-48.352 48.35-112.639 74.979-181.019 74.979z"/><path d="M81.954 92.146a9.966 9.966 0 0 1-7.089-2.947c-3.896-3.915-3.879-10.247.036-14.142l.19-.189c3.915-3.896 10.245-3.881 14.142.036 3.896 3.915 3.879 10.247-.036 14.142l-.19.189a9.964 9.964 0 0 1-7.053 2.911zM255.998 389.999c-23.159 0-42-18.841-42-42v-50h-50c-23.159 0-42-18.841-42-42s18.841-42 42-42h50v-50c0-23.159 18.841-42 42-42s42 18.841 42 42v50h50c23.159 0 42 18.841 42 42s-18.841 42-42 42h-50v50c0 23.159-18.841 42-42 42zm-92-156c-12.131 0-22 9.869-22 22s9.869 22 22 22h60c5.522 0 10 4.478 10 10v60c0 12.131 9.869 22 22 22s22-9.869 22-22v-60c0-5.522 4.478-10 10-10h60c12.131 0 22-9.869 22-22s-9.869-22-22-22h-60c-5.522 0-10-4.478-10-10v-60c0-12.131-9.869-22-22-22s-22 9.869-22 22v60c0 5.522-4.478 10-10 10h-60zM255.998 463.976c-47.983 0-94.802-16.731-131.833-47.113-36.52-29.963-61.971-71.776-71.666-117.738-1.14-5.403 2.317-10.708 7.722-11.849 5.404-1.137 10.709 2.317 11.849 7.722 18.208 86.324 95.561 148.979 183.929 148.979 5.522 0 10 4.478 10 10s-4.479 9.999-10.001 9.999zM58.019 266.135c-5.586 0-9.976-4.429-9.999-10.094-.024-5.672 4.341-10.143 9.938-10.178h.065c5.564 0 9.951 4.403 9.998 10.053v.083c0 5.672-4.384 10.124-9.979 10.136h-.023z"/></svg>