<svg xmlns="http://www.w3.org/2000/svg" viewBox="0 0 512 512"><path d="M499.2 388.266h-8.533a4.273 4.273 0 0 1-4.267-4.267V281.6c0-39.991-32.538-72.533-72.533-72.533h-34.133c-39.996 0-72.533 32.542-72.533 72.533 0 7.067 5.729 12.8 12.8 12.8h34.133c7.071 0 12.8-5.733 12.8-12.8 0-19.858 11.108-46.933 29.867-46.933s29.867 27.075 29.867 46.933v7.901c-12.87 4.102-25.588 6.299-37.95 8.316-25.729 4.192-50.033 8.15-67.617 29.583-13.637 16.617-16.962 37.834-8.671 55.358 9.35 19.776 30.771 31.109 58.771 31.109h17.067c15.198 0 29.477-3.658 44.876-11.524 5.473 6.962 13.87 11.524 23.391 11.524H499.2c7.071 0 12.8-5.733 12.8-12.8 0-7.067-5.729-12.801-12.8-12.801zm-72.533-11.484c-13.814 7.905-25.871 11.485-38.4 11.485-11.534 0-16.658-7.659-18.691-12.225-3.862-8.691-3.721-21.941 5.309-31.95 11.343-12.579 32.176-20.477 51.783-26.647v59.338h-.001z" fill="#ff6469"/><path d="M285.867 388.266h-8.492L161.171 106.058c-1.975-4.793-6.651-7.925-11.838-7.925s-9.862 3.134-11.838 7.925L21.292 388.266H12.8c-7.071 0-12.8 5.733-12.8 12.8 0 7.067 5.729 12.8 12.8 12.8H46.933c7.071 0 12.8-5.733 12.8-12.8 0-6.394-4.704-11.65-10.833-12.602l24.677-59.932h108.844l24.678 59.932c-6.129.951-10.833 6.208-10.833 12.602 0 7.067 5.729 12.8 12.8 12.8h76.8c7.071 0 12.8-5.733 12.8-12.8.001-7.066-5.728-12.8-12.799-12.8zM84.118 302.933l43.881-106.569 43.882 106.569H84.118z" fill="#ffdc69"/></svg>