<svg xmlns="http://www.w3.org/2000/svg" viewBox="0 0 495 495"><path d="M247.5 495H495V247.5H247.5V495zm60-143.75H435v40H307.5v-40z" fill="#ffda44"/><path d="M0 247.5V495h247.5V247.5H0zm187.5 178.75H60v-40h127.5v40zm0-70H60v-40h127.5v40zM247.5 0v247.5H495V0H247.5zm154.686 182.97l-30.936-30.936-29.194 29.194-28.285-28.284 29.195-29.195-30.936-30.936 28.285-28.284 30.936 30.936 29.194-29.194 28.285 28.284-29.195 29.195 30.936 30.936-28.285 28.284z" fill="#ffcd00"/><path fill="#2488ff" d="M428.729 94.555l-28.285-28.284-29.194 29.194-30.936-30.935-28.285 28.284 30.936 30.936-29.194 29.195 28.285 28.284 29.194-29.194 30.936 30.935 28.285-28.284-30.936-30.936zM60 386.25h127.5v40H60zM60 316.25h127.5v40H60zM307.5 351.25H435v40H307.5z"/><path d="M247.5 0H0v247.5h247.5V0zm-60 143.75h-43.75v41.288h-40V143.75H60v-40h43.75V62.462h40v41.288h43.75v40z" fill="#ffda44"/><path fill="#2488ff" d="M143.75 62.462h-40v41.288H60v40h43.75v41.288h40V143.75h43.75v-40h-43.75z"/></svg>