<svg xmlns="http://www.w3.org/2000/svg" viewBox="0 0 512 512"><path d="M255.939 511.938C114.811 511.938 0 397.127 0 255.999S114.811.061 255.939.061 511.878 114.872 511.878 256 397.066 511.938 255.939 511.938z" fill="#00d7df"/><path d="M256.061.061c-1.908 0-3.791.102-5.688.145v511.589c1.897.041 3.78.145 5.688.145C397.189 511.939 512 397.128 512 256.001S397.189.061 256.061.061z" fill="#00b6bd"/><path d="M136.506 383.997h-14.13c-9.222 0-16.695-7.473-16.695-16.695 0-9.222 7.473-16.695 16.695-16.695h14.13c23.25 0 43.282-15.788 48.706-38.396l42.206-175.866c9.043-37.679 42.423-63.993 81.173-63.993h14.13c9.222 0 16.695 7.473 16.695 16.695s-7.473 16.695-16.695 16.695h-14.13c-23.25 0-43.282 15.788-48.706 38.396l-42.206 175.866c-9.044 37.678-42.423 63.993-81.173 63.993z" fill="#fff"/><g fill="#ffe6b3"><path d="M345.654 288.717c-6.521-6.521-17.087-6.521-23.608 0l-21.587 21.587-21.586-21.587c-6.521-6.521-17.087-6.521-23.608 0-6.521 6.516-6.521 17.091 0 23.608l21.587 21.587-21.586 21.586c-6.521 6.516-6.521 17.092 0 23.608a16.642 16.642 0 0 0 11.804 4.892 16.64 16.64 0 0 0 11.804-4.892l21.587-21.587 21.587 21.587c3.261 3.261 7.533 4.892 11.804 4.892s8.544-1.631 11.804-4.892c6.521-6.516 6.521-17.092 0-23.608l-21.587-21.587 21.587-21.587c6.52-6.516 6.52-17.092-.002-23.607zM322.72 72.351h-14.13c-22.437 0-43.062 8.835-58.216 23.578v87.837l9.511-39.629c5.424-22.608 25.456-38.396 48.706-38.396h14.13c9.222 0 16.695-7.473 16.695-16.695s-7.474-16.695-16.696-16.695z"/></g></svg>